<?xml version="1.0" encoding="utf-8" standalone="no"?>
<!DOCTYPE svg PUBLIC "-//W3C//DTD SVG 1.1//EN"
  "http://www.w3.org/Graphics/SVG/1.1/DTD/svg11.dtd">
<svg xmlns:xlink="http://www.w3.org/1999/xlink" width="460.8pt" height="345.6pt" viewBox="0 0 460.8 345.6" xmlns="http://www.w3.org/2000/svg" version="1.1">
 <metadata>
  <rdf:RDF xmlns:dc="http://purl.org/dc/elements/1.1/" xmlns:cc="http://creativecommons.org/ns#" xmlns:rdf="http://www.w3.org/1999/02/22-rdf-syntax-ns#">
   <cc:Work>
    <dc:type rdf:resource="http://purl.org/dc/dcmitype/StillImage"/>
    <dc:date>2025-07-06T23:39:39.488078</dc:date>
    <dc:format>image/svg+xml</dc:format>
    <dc:creator>
     <cc:Agent>
      <dc:title>Matplotlib v3.8.2, https://matplotlib.org/</dc:title>
     </cc:Agent>
    </dc:creator>
   </cc:Work>
  </rdf:RDF>
 </metadata>
 <defs>
  <style type="text/css">*{stroke-linejoin: round; stroke-linecap: butt}</style>
 </defs>
 <g id="figure_1">
  <g id="patch_1">
   <path d="M 0 345.6 
L 460.8 345.6 
L 460.8 0 
L 0 0 
z
" style="fill: #ffffff"/>
  </g>
  <g id="axes_1">
   <g id="patch_2">
    <path d="M 57.6 307.584 
L 414.72 307.584 
L 414.72 41.472 
L 57.6 41.472 
z
" style="fill: #ffffff"/>
   </g>
   <g id="PathCollection_1">
    <defs>
     <path id="m7a20dbddf4" d="M 0 3 
C 0.795609 3 1.55874 2.683901 2.12132 2.12132 
C 2.683901 1.55874 3 0.795609 3 0 
C 3 -0.795609 2.683901 -1.55874 2.12132 -2.12132 
C 1.55874 -2.683901 0.795609 -3 0 -3 
C -0.795609 -3 -1.55874 -2.683901 -2.12132 -2.12132 
C -2.683901 -1.55874 -3 -0.795609 -3 0 
C -3 0.795609 -2.683901 1.55874 -2.12132 2.12132 
C -1.55874 2.683901 -0.795609 3 0 3 
z
" style="stroke: #1f77b4"/>
    </defs>
    <g clip-path="url(#paab3384e53)">
     <use xlink:href="#m7a20dbddf4" x="398.487273" y="124.992" style="fill: #1f77b4; stroke: #1f77b4"/>
     <use xlink:href="#m7a20dbddf4" x="395.395325" y="217.152" style="fill: #1f77b4; stroke: #1f77b4"/>
     <use xlink:href="#m7a20dbddf4" x="392.303377" y="173.376" style="fill: #1f77b4; stroke: #1f77b4"/>
     <use xlink:href="#m7a20dbddf4" x="389.211429" y="157.248" style="fill: #1f77b4; stroke: #1f77b4"/>
     <use xlink:href="#m7a20dbddf4" x="386.119481" y="258.624" style="fill: #1f77b4; stroke: #1f77b4"/>
     <use xlink:href="#m7a20dbddf4" x="383.027532" y="260.928" style="fill: #1f77b4; stroke: #1f77b4"/>
     <use xlink:href="#m7a20dbddf4" x="379.935584" y="254.016" style="fill: #1f77b4; stroke: #1f77b4"/>
     <use xlink:href="#m7a20dbddf4" x="376.843636" y="83.52" style="fill: #1f77b4; stroke: #1f77b4"/>
     <use xlink:href="#m7a20dbddf4" x="373.751688" y="76.608" style="fill: #1f77b4; stroke: #1f77b4"/>
     <use xlink:href="#m7a20dbddf4" x="370.65974" y="53.568" style="fill: #1f77b4; stroke: #1f77b4"/>
     <use xlink:href="#m7a20dbddf4" x="367.567792" y="272.448" style="fill: #1f77b4; stroke: #1f77b4"/>
     <use xlink:href="#m7a20dbddf4" x="364.475844" y="288.576" style="fill: #1f77b4; stroke: #1f77b4"/>
     <use xlink:href="#m7a20dbddf4" x="361.383896" y="224.064" style="fill: #1f77b4; stroke: #1f77b4"/>
     <use xlink:href="#m7a20dbddf4" x="358.291948" y="115.776" style="fill: #1f77b4; stroke: #1f77b4"/>
     <use xlink:href="#m7a20dbddf4" x="355.2" y="62.784" style="fill: #1f77b4; stroke: #1f77b4"/>
     <use xlink:href="#m7a20dbddf4" x="352.108052" y="242.496" style="fill: #1f77b4; stroke: #1f77b4"/>
     <use xlink:href="#m7a20dbddf4" x="349.016104" y="118.08" style="fill: #1f77b4; stroke: #1f77b4"/>
     <use xlink:href="#m7a20dbddf4" x="345.924156" y="150.336" style="fill: #1f77b4; stroke: #1f77b4"/>
     <use xlink:href="#m7a20dbddf4" x="342.832208" y="295.488" style="fill: #1f77b4; stroke: #1f77b4"/>
     <use xlink:href="#m7a20dbddf4" x="336.648312" y="154.944" style="fill: #1f77b4; stroke: #1f77b4"/>
     <use xlink:href="#m7a20dbddf4" x="339.74026" y="256.32" style="fill: #1f77b4; stroke: #1f77b4"/>
     <use xlink:href="#m7a20dbddf4" x="333.556364" y="122.688" style="fill: #1f77b4; stroke: #1f77b4"/>
     <use xlink:href="#m7a20dbddf4" x="330.464416" y="175.68" style="fill: #1f77b4; stroke: #1f77b4"/>
     <use xlink:href="#m7a20dbddf4" x="327.372468" y="171.072" style="fill: #1f77b4; stroke: #1f77b4"/>
     <use xlink:href="#m7a20dbddf4" x="324.280519" y="152.64" style="fill: #1f77b4; stroke: #1f77b4"/>
     <use xlink:href="#m7a20dbddf4" x="321.188571" y="69.696" style="fill: #1f77b4; stroke: #1f77b4"/>
     <use xlink:href="#m7a20dbddf4" x="318.096623" y="143.424" style="fill: #1f77b4; stroke: #1f77b4"/>
     <use xlink:href="#m7a20dbddf4" x="315.004675" y="166.464" style="fill: #1f77b4; stroke: #1f77b4"/>
     <use xlink:href="#m7a20dbddf4" x="311.912727" y="78.912" style="fill: #1f77b4; stroke: #1f77b4"/>
     <use xlink:href="#m7a20dbddf4" x="308.820779" y="120.384" style="fill: #1f77b4; stroke: #1f77b4"/>
     <use xlink:href="#m7a20dbddf4" x="305.728831" y="290.88" style="fill: #1f77b4; stroke: #1f77b4"/>
     <use xlink:href="#m7a20dbddf4" x="302.636883" y="267.84" style="fill: #1f77b4; stroke: #1f77b4"/>
     <use xlink:href="#m7a20dbddf4" x="299.544935" y="221.76" style="fill: #1f77b4; stroke: #1f77b4"/>
     <use xlink:href="#m7a20dbddf4" x="296.452987" y="237.888" style="fill: #1f77b4; stroke: #1f77b4"/>
     <use xlink:href="#m7a20dbddf4" x="293.361039" y="240.192" style="fill: #1f77b4; stroke: #1f77b4"/>
     <use xlink:href="#m7a20dbddf4" x="290.269091" y="81.216" style="fill: #1f77b4; stroke: #1f77b4"/>
     <use xlink:href="#m7a20dbddf4" x="287.177143" y="161.856" style="fill: #1f77b4; stroke: #1f77b4"/>
     <use xlink:href="#m7a20dbddf4" x="284.085195" y="235.584" style="fill: #1f77b4; stroke: #1f77b4"/>
     <use xlink:href="#m7a20dbddf4" x="280.993247" y="233.28" style="fill: #1f77b4; stroke: #1f77b4"/>
     <use xlink:href="#m7a20dbddf4" x="277.901299" y="247.104" style="fill: #1f77b4; stroke: #1f77b4"/>
     <use xlink:href="#m7a20dbddf4" x="274.809351" y="127.296" style="fill: #1f77b4; stroke: #1f77b4"/>
     <use xlink:href="#m7a20dbddf4" x="271.717403" y="136.512" style="fill: #1f77b4; stroke: #1f77b4"/>
     <use xlink:href="#m7a20dbddf4" x="268.625455" y="92.736" style="fill: #1f77b4; stroke: #1f77b4"/>
     <use xlink:href="#m7a20dbddf4" x="265.533506" y="212.544" style="fill: #1f77b4; stroke: #1f77b4"/>
     <use xlink:href="#m7a20dbddf4" x="262.441558" y="210.24" style="fill: #1f77b4; stroke: #1f77b4"/>
     <use xlink:href="#m7a20dbddf4" x="259.34961" y="97.344" style="fill: #1f77b4; stroke: #1f77b4"/>
     <use xlink:href="#m7a20dbddf4" x="256.257662" y="99.648" style="fill: #1f77b4; stroke: #1f77b4"/>
     <use xlink:href="#m7a20dbddf4" x="253.165714" y="65.088" style="fill: #1f77b4; stroke: #1f77b4"/>
     <use xlink:href="#m7a20dbddf4" x="250.073766" y="104.256" style="fill: #1f77b4; stroke: #1f77b4"/>
     <use xlink:href="#m7a20dbddf4" x="246.981818" y="60.48" style="fill: #1f77b4; stroke: #1f77b4"/>
     <use xlink:href="#m7a20dbddf4" x="243.88987" y="189.504" style="fill: #1f77b4; stroke: #1f77b4"/>
     <use xlink:href="#m7a20dbddf4" x="240.797922" y="187.2" style="fill: #1f77b4; stroke: #1f77b4"/>
     <use xlink:href="#m7a20dbddf4" x="237.705974" y="72" style="fill: #1f77b4; stroke: #1f77b4"/>
     <use xlink:href="#m7a20dbddf4" x="234.614026" y="85.824" style="fill: #1f77b4; stroke: #1f77b4"/>
     <use xlink:href="#m7a20dbddf4" x="231.522078" y="194.112" style="fill: #1f77b4; stroke: #1f77b4"/>
     <use xlink:href="#m7a20dbddf4" x="225.338182" y="131.904" style="fill: #1f77b4; stroke: #1f77b4"/>
     <use xlink:href="#m7a20dbddf4" x="228.43013" y="108.864" style="fill: #1f77b4; stroke: #1f77b4"/>
     <use xlink:href="#m7a20dbddf4" x="222.246234" y="129.6" style="fill: #1f77b4; stroke: #1f77b4"/>
     <use xlink:href="#m7a20dbddf4" x="216.062338" y="111.168" style="fill: #1f77b4; stroke: #1f77b4"/>
     <use xlink:href="#m7a20dbddf4" x="219.154286" y="67.392" style="fill: #1f77b4; stroke: #1f77b4"/>
     <use xlink:href="#m7a20dbddf4" x="212.97039" y="74.304" style="fill: #1f77b4; stroke: #1f77b4"/>
     <use xlink:href="#m7a20dbddf4" x="209.878442" y="182.592" style="fill: #1f77b4; stroke: #1f77b4"/>
     <use xlink:href="#m7a20dbddf4" x="206.786494" y="180.288" style="fill: #1f77b4; stroke: #1f77b4"/>
     <use xlink:href="#m7a20dbddf4" x="203.694545" y="95.04" style="fill: #1f77b4; stroke: #1f77b4"/>
     <use xlink:href="#m7a20dbddf4" x="200.602597" y="214.848" style="fill: #1f77b4; stroke: #1f77b4"/>
     <use xlink:href="#m7a20dbddf4" x="197.510649" y="244.8" style="fill: #1f77b4; stroke: #1f77b4"/>
     <use xlink:href="#m7a20dbddf4" x="194.418701" y="55.872" style="fill: #1f77b4; stroke: #1f77b4"/>
     <use xlink:href="#m7a20dbddf4" x="191.326753" y="106.56" style="fill: #1f77b4; stroke: #1f77b4"/>
     <use xlink:href="#m7a20dbddf4" x="185.142857" y="251.712" style="fill: #1f77b4; stroke: #1f77b4"/>
     <use xlink:href="#m7a20dbddf4" x="188.234805" y="58.176" style="fill: #1f77b4; stroke: #1f77b4"/>
     <use xlink:href="#m7a20dbddf4" x="182.050909" y="270.144" style="fill: #1f77b4; stroke: #1f77b4"/>
     <use xlink:href="#m7a20dbddf4" x="178.958961" y="219.456" style="fill: #1f77b4; stroke: #1f77b4"/>
     <use xlink:href="#m7a20dbddf4" x="175.867013" y="113.472" style="fill: #1f77b4; stroke: #1f77b4"/>
     <use xlink:href="#m7a20dbddf4" x="172.775065" y="159.552" style="fill: #1f77b4; stroke: #1f77b4"/>
     <use xlink:href="#m7a20dbddf4" x="169.683117" y="88.128" style="fill: #1f77b4; stroke: #1f77b4"/>
     <use xlink:href="#m7a20dbddf4" x="166.591169" y="293.184" style="fill: #1f77b4; stroke: #1f77b4"/>
     <use xlink:href="#m7a20dbddf4" x="163.499221" y="168.768" style="fill: #1f77b4; stroke: #1f77b4"/>
     <use xlink:href="#m7a20dbddf4" x="160.407273" y="90.432" style="fill: #1f77b4; stroke: #1f77b4"/>
     <use xlink:href="#m7a20dbddf4" x="154.223377" y="145.728" style="fill: #1f77b4; stroke: #1f77b4"/>
     <use xlink:href="#m7a20dbddf4" x="157.315325" y="141.12" style="fill: #1f77b4; stroke: #1f77b4"/>
     <use xlink:href="#m7a20dbddf4" x="148.039481" y="164.16" style="fill: #1f77b4; stroke: #1f77b4"/>
     <use xlink:href="#m7a20dbddf4" x="151.131429" y="201.024" style="fill: #1f77b4; stroke: #1f77b4"/>
     <use xlink:href="#m7a20dbddf4" x="144.947532" y="101.952" style="fill: #1f77b4; stroke: #1f77b4"/>
     <use xlink:href="#m7a20dbddf4" x="141.855584" y="226.368" style="fill: #1f77b4; stroke: #1f77b4"/>
     <use xlink:href="#m7a20dbddf4" x="138.763636" y="196.416" style="fill: #1f77b4; stroke: #1f77b4"/>
     <use xlink:href="#m7a20dbddf4" x="135.671688" y="203.328" style="fill: #1f77b4; stroke: #1f77b4"/>
     <use xlink:href="#m7a20dbddf4" x="132.57974" y="265.536" style="fill: #1f77b4; stroke: #1f77b4"/>
     <use xlink:href="#m7a20dbddf4" x="129.487792" y="191.808" style="fill: #1f77b4; stroke: #1f77b4"/>
     <use xlink:href="#m7a20dbddf4" x="126.395844" y="134.208" style="fill: #1f77b4; stroke: #1f77b4"/>
     <use xlink:href="#m7a20dbddf4" x="120.211948" y="138.816" style="fill: #1f77b4; stroke: #1f77b4"/>
     <use xlink:href="#m7a20dbddf4" x="123.303896" y="148.032" style="fill: #1f77b4; stroke: #1f77b4"/>
     <use xlink:href="#m7a20dbddf4" x="117.12" y="177.984" style="fill: #1f77b4; stroke: #1f77b4"/>
     <use xlink:href="#m7a20dbddf4" x="114.028052" y="184.896" style="fill: #1f77b4; stroke: #1f77b4"/>
     <use xlink:href="#m7a20dbddf4" x="110.936104" y="198.72" style="fill: #1f77b4; stroke: #1f77b4"/>
     <use xlink:href="#m7a20dbddf4" x="107.844156" y="279.36" style="fill: #1f77b4; stroke: #1f77b4"/>
     <use xlink:href="#m7a20dbddf4" x="104.752208" y="228.672" style="fill: #1f77b4; stroke: #1f77b4"/>
     <use xlink:href="#m7a20dbddf4" x="101.66026" y="263.232" style="fill: #1f77b4; stroke: #1f77b4"/>
     <use xlink:href="#m7a20dbddf4" x="98.568312" y="274.752" style="fill: #1f77b4; stroke: #1f77b4"/>
     <use xlink:href="#m7a20dbddf4" x="95.476364" y="207.936" style="fill: #1f77b4; stroke: #1f77b4"/>
     <use xlink:href="#m7a20dbddf4" x="92.384416" y="230.976" style="fill: #1f77b4; stroke: #1f77b4"/>
     <use xlink:href="#m7a20dbddf4" x="86.200519" y="286.272" style="fill: #1f77b4; stroke: #1f77b4"/>
     <use xlink:href="#m7a20dbddf4" x="89.292468" y="283.968" style="fill: #1f77b4; stroke: #1f77b4"/>
     <use xlink:href="#m7a20dbddf4" x="83.108571" y="277.056" style="fill: #1f77b4; stroke: #1f77b4"/>
     <use xlink:href="#m7a20dbddf4" x="80.016623" y="281.664" style="fill: #1f77b4; stroke: #1f77b4"/>
     <use xlink:href="#m7a20dbddf4" x="76.924675" y="249.408" style="fill: #1f77b4; stroke: #1f77b4"/>
     <use xlink:href="#m7a20dbddf4" x="73.832727" y="205.632" style="fill: #1f77b4; stroke: #1f77b4"/>
    </g>
   </g>
   <g id="matplotlib.axis_1">
    <g id="xtick_1">
     <g id="line2d_1">
      <defs>
       <path id="mc5bf1d8a0b" d="M 0 0 
L 0 3.5 
" style="stroke: #000000; stroke-width: 0.8"/>
      </defs>
      <g>
       <use xlink:href="#mc5bf1d8a0b" x="73.832727" y="307.584" style="stroke: #000000; stroke-width: 0.8"/>
      </g>
     </g>
     <g id="text_1">
      <!-- 0 -->
      <g transform="translate(70.651477 322.182437) scale(0.1 -0.1)">
       <defs>
        <path id="DejaVuSans-30" d="M 2034 4250 
Q 1547 4250 1301 3770 
Q 1056 3291 1056 2328 
Q 1056 1369 1301 889 
Q 1547 409 2034 409 
Q 2525 409 2770 889 
Q 3016 1369 3016 2328 
Q 3016 3291 2770 3770 
Q 2525 4250 2034 4250 
z
M 2034 4750 
Q 2819 4750 3233 4129 
Q 3647 3509 3647 2328 
Q 3647 1150 3233 529 
Q 2819 -91 2034 -91 
Q 1250 -91 836 529 
Q 422 1150 422 2328 
Q 422 3509 836 4129 
Q 1250 4750 2034 4750 
z
" transform="scale(0.015625)"/>
       </defs>
       <use xlink:href="#DejaVuSans-30"/>
      </g>
     </g>
    </g>
    <g id="xtick_2">
     <g id="line2d_2">
      <g>
       <use xlink:href="#mc5bf1d8a0b" x="135.671688" y="307.584" style="stroke: #000000; stroke-width: 0.8"/>
      </g>
     </g>
     <g id="text_2">
      <!-- 20 -->
      <g transform="translate(129.309188 322.182437) scale(0.1 -0.1)">
       <defs>
        <path id="DejaVuSans-32" d="M 1228 531 
L 3431 531 
L 3431 0 
L 469 0 
L 469 531 
Q 828 903 1448 1529 
Q 2069 2156 2228 2338 
Q 2531 2678 2651 2914 
Q 2772 3150 2772 3378 
Q 2772 3750 2511 3984 
Q 2250 4219 1831 4219 
Q 1534 4219 1204 4116 
Q 875 4013 500 3803 
L 500 4441 
Q 881 4594 1212 4672 
Q 1544 4750 1819 4750 
Q 2544 4750 2975 4387 
Q 3406 4025 3406 3419 
Q 3406 3131 3298 2873 
Q 3191 2616 2906 2266 
Q 2828 2175 2409 1742 
Q 1991 1309 1228 531 
z
" transform="scale(0.015625)"/>
       </defs>
       <use xlink:href="#DejaVuSans-32"/>
       <use xlink:href="#DejaVuSans-30" x="63.623047"/>
      </g>
     </g>
    </g>
    <g id="xtick_3">
     <g id="line2d_3">
      <g>
       <use xlink:href="#mc5bf1d8a0b" x="197.510649" y="307.584" style="stroke: #000000; stroke-width: 0.8"/>
      </g>
     </g>
     <g id="text_3">
      <!-- 40 -->
      <g transform="translate(191.148149 322.182437) scale(0.1 -0.1)">
       <defs>
        <path id="DejaVuSans-34" d="M 2419 4116 
L 825 1625 
L 2419 1625 
L 2419 4116 
z
M 2253 4666 
L 3047 4666 
L 3047 1625 
L 3713 1625 
L 3713 1100 
L 3047 1100 
L 3047 0 
L 2419 0 
L 2419 1100 
L 313 1100 
L 313 1709 
L 2253 4666 
z
" transform="scale(0.015625)"/>
       </defs>
       <use xlink:href="#DejaVuSans-34"/>
       <use xlink:href="#DejaVuSans-30" x="63.623047"/>
      </g>
     </g>
    </g>
    <g id="xtick_4">
     <g id="line2d_4">
      <g>
       <use xlink:href="#mc5bf1d8a0b" x="259.34961" y="307.584" style="stroke: #000000; stroke-width: 0.8"/>
      </g>
     </g>
     <g id="text_4">
      <!-- 60 -->
      <g transform="translate(252.98711 322.182437) scale(0.1 -0.1)">
       <defs>
        <path id="DejaVuSans-36" d="M 2113 2584 
Q 1688 2584 1439 2293 
Q 1191 2003 1191 1497 
Q 1191 994 1439 701 
Q 1688 409 2113 409 
Q 2538 409 2786 701 
Q 3034 994 3034 1497 
Q 3034 2003 2786 2293 
Q 2538 2584 2113 2584 
z
M 3366 4563 
L 3366 3988 
Q 3128 4100 2886 4159 
Q 2644 4219 2406 4219 
Q 1781 4219 1451 3797 
Q 1122 3375 1075 2522 
Q 1259 2794 1537 2939 
Q 1816 3084 2150 3084 
Q 2853 3084 3261 2657 
Q 3669 2231 3669 1497 
Q 3669 778 3244 343 
Q 2819 -91 2113 -91 
Q 1303 -91 875 529 
Q 447 1150 447 2328 
Q 447 3434 972 4092 
Q 1497 4750 2381 4750 
Q 2619 4750 2861 4703 
Q 3103 4656 3366 4563 
z
" transform="scale(0.015625)"/>
       </defs>
       <use xlink:href="#DejaVuSans-36"/>
       <use xlink:href="#DejaVuSans-30" x="63.623047"/>
      </g>
     </g>
    </g>
    <g id="xtick_5">
     <g id="line2d_5">
      <g>
       <use xlink:href="#mc5bf1d8a0b" x="321.188571" y="307.584" style="stroke: #000000; stroke-width: 0.8"/>
      </g>
     </g>
     <g id="text_5">
      <!-- 80 -->
      <g transform="translate(314.826071 322.182437) scale(0.1 -0.1)">
       <defs>
        <path id="DejaVuSans-38" d="M 2034 2216 
Q 1584 2216 1326 1975 
Q 1069 1734 1069 1313 
Q 1069 891 1326 650 
Q 1584 409 2034 409 
Q 2484 409 2743 651 
Q 3003 894 3003 1313 
Q 3003 1734 2745 1975 
Q 2488 2216 2034 2216 
z
M 1403 2484 
Q 997 2584 770 2862 
Q 544 3141 544 3541 
Q 544 4100 942 4425 
Q 1341 4750 2034 4750 
Q 2731 4750 3128 4425 
Q 3525 4100 3525 3541 
Q 3525 3141 3298 2862 
Q 3072 2584 2669 2484 
Q 3125 2378 3379 2068 
Q 3634 1759 3634 1313 
Q 3634 634 3220 271 
Q 2806 -91 2034 -91 
Q 1263 -91 848 271 
Q 434 634 434 1313 
Q 434 1759 690 2068 
Q 947 2378 1403 2484 
z
M 1172 3481 
Q 1172 3119 1398 2916 
Q 1625 2713 2034 2713 
Q 2441 2713 2670 2916 
Q 2900 3119 2900 3481 
Q 2900 3844 2670 4047 
Q 2441 4250 2034 4250 
Q 1625 4250 1398 4047 
Q 1172 3844 1172 3481 
z
" transform="scale(0.015625)"/>
       </defs>
       <use xlink:href="#DejaVuSans-38"/>
       <use xlink:href="#DejaVuSans-30" x="63.623047"/>
      </g>
     </g>
    </g>
    <g id="xtick_6">
     <g id="line2d_6">
      <g>
       <use xlink:href="#mc5bf1d8a0b" x="383.027532" y="307.584" style="stroke: #000000; stroke-width: 0.8"/>
      </g>
     </g>
     <g id="text_6">
      <!-- 100 -->
      <g transform="translate(373.483782 322.182437) scale(0.1 -0.1)">
       <defs>
        <path id="DejaVuSans-31" d="M 794 531 
L 1825 531 
L 1825 4091 
L 703 3866 
L 703 4441 
L 1819 4666 
L 2450 4666 
L 2450 531 
L 3481 531 
L 3481 0 
L 794 0 
L 794 531 
z
" transform="scale(0.015625)"/>
       </defs>
       <use xlink:href="#DejaVuSans-31"/>
       <use xlink:href="#DejaVuSans-30" x="63.623047"/>
       <use xlink:href="#DejaVuSans-30" x="127.246094"/>
      </g>
     </g>
    </g>
   </g>
   <g id="matplotlib.axis_2">
    <g id="ytick_1">
     <g id="line2d_7">
      <defs>
       <path id="m85f1568d74" d="M 0 0 
L -3.5 0 
" style="stroke: #000000; stroke-width: 0.8"/>
      </defs>
      <g>
       <use xlink:href="#m85f1568d74" x="57.6" y="295.488" style="stroke: #000000; stroke-width: 0.8"/>
      </g>
     </g>
     <g id="text_7">
      <!-- 0 -->
      <g transform="translate(44.2375 299.287219) scale(0.1 -0.1)">
       <use xlink:href="#DejaVuSans-30"/>
      </g>
     </g>
    </g>
    <g id="ytick_2">
     <g id="line2d_8">
      <g>
       <use xlink:href="#m85f1568d74" x="57.6" y="249.408" style="stroke: #000000; stroke-width: 0.8"/>
      </g>
     </g>
     <g id="text_8">
      <!-- 20 -->
      <g transform="translate(37.875 253.207219) scale(0.1 -0.1)">
       <use xlink:href="#DejaVuSans-32"/>
       <use xlink:href="#DejaVuSans-30" x="63.623047"/>
      </g>
     </g>
    </g>
    <g id="ytick_3">
     <g id="line2d_9">
      <g>
       <use xlink:href="#m85f1568d74" x="57.6" y="203.328" style="stroke: #000000; stroke-width: 0.8"/>
      </g>
     </g>
     <g id="text_9">
      <!-- 40 -->
      <g transform="translate(37.875 207.127219) scale(0.1 -0.1)">
       <use xlink:href="#DejaVuSans-34"/>
       <use xlink:href="#DejaVuSans-30" x="63.623047"/>
      </g>
     </g>
    </g>
    <g id="ytick_4">
     <g id="line2d_10">
      <g>
       <use xlink:href="#m85f1568d74" x="57.6" y="157.248" style="stroke: #000000; stroke-width: 0.8"/>
      </g>
     </g>
     <g id="text_10">
      <!-- 60 -->
      <g transform="translate(37.875 161.047219) scale(0.1 -0.1)">
       <use xlink:href="#DejaVuSans-36"/>
       <use xlink:href="#DejaVuSans-30" x="63.623047"/>
      </g>
     </g>
    </g>
    <g id="ytick_5">
     <g id="line2d_11">
      <g>
       <use xlink:href="#m85f1568d74" x="57.6" y="111.168" style="stroke: #000000; stroke-width: 0.8"/>
      </g>
     </g>
     <g id="text_11">
      <!-- 80 -->
      <g transform="translate(37.875 114.967219) scale(0.1 -0.1)">
       <use xlink:href="#DejaVuSans-38"/>
       <use xlink:href="#DejaVuSans-30" x="63.623047"/>
      </g>
     </g>
    </g>
    <g id="ytick_6">
     <g id="line2d_12">
      <g>
       <use xlink:href="#m85f1568d74" x="57.6" y="65.088" style="stroke: #000000; stroke-width: 0.8"/>
      </g>
     </g>
     <g id="text_12">
      <!-- 100 -->
      <g transform="translate(31.5125 68.887219) scale(0.1 -0.1)">
       <use xlink:href="#DejaVuSans-31"/>
       <use xlink:href="#DejaVuSans-30" x="63.623047"/>
       <use xlink:href="#DejaVuSans-30" x="127.246094"/>
      </g>
     </g>
    </g>
   </g>
   <g id="line2d_13">
    <path d="M 73.832727 295.488 
L 76.924675 293.184 
L 80.016623 290.88 
L 83.108571 288.576 
L 86.200519 286.272 
L 89.292468 283.968 
L 92.384416 281.664 
L 95.476364 279.36 
L 98.568312 277.056 
L 101.66026 274.752 
L 104.752208 272.448 
L 107.844156 270.144 
L 110.936104 267.84 
L 114.028052 265.536 
L 117.12 263.232 
L 120.211948 260.928 
L 123.303896 258.624 
L 126.395844 256.32 
L 129.487792 254.016 
L 132.57974 251.712 
L 135.671688 249.408 
L 138.763636 247.104 
L 141.855584 244.8 
L 144.947532 242.496 
L 148.039481 240.192 
L 151.131429 237.888 
L 154.223377 235.584 
L 157.315325 233.28 
L 160.407273 230.976 
L 163.499221 228.672 
L 166.591169 226.368 
L 169.683117 224.064 
L 172.775065 221.76 
L 175.867013 219.456 
L 178.958961 217.152 
L 182.050909 214.848 
L 185.142857 212.544 
L 188.234805 210.24 
L 191.326753 207.936 
L 194.418701 205.632 
L 197.510649 203.328 
L 200.602597 201.024 
L 203.694545 198.72 
L 206.786494 196.416 
L 209.878442 194.112 
L 212.97039 191.808 
L 216.062338 189.504 
L 219.154286 187.2 
L 222.246234 184.896 
L 225.338182 182.592 
L 228.43013 180.288 
L 231.522078 177.984 
L 234.614026 175.68 
L 237.705974 173.376 
L 240.797922 171.072 
L 243.88987 168.768 
L 246.981818 166.464 
L 250.073766 164.16 
L 253.165714 161.856 
L 256.257662 159.552 
L 259.34961 157.248 
L 262.441558 154.944 
L 265.533506 152.64 
L 268.625455 150.336 
L 271.717403 148.032 
L 274.809351 145.728 
L 277.901299 143.424 
L 280.993247 141.12 
L 284.085195 138.816 
L 287.177143 136.512 
L 290.269091 134.208 
L 293.361039 131.904 
L 296.452987 129.6 
L 299.544935 127.296 
L 302.636883 124.992 
L 305.728831 122.688 
L 308.820779 120.384 
L 311.912727 118.08 
L 315.004675 115.776 
L 318.096623 113.472 
L 321.188571 111.168 
L 324.280519 108.864 
L 327.372468 106.56 
L 330.464416 104.256 
L 333.556364 101.952 
L 336.648312 99.648 
L 339.74026 97.344 
L 342.832208 95.04 
L 345.924156 92.736 
L 349.016104 90.432 
L 352.108052 88.128 
L 355.2 85.824 
L 358.291948 83.52 
L 361.383896 81.216 
L 364.475844 78.912 
L 367.567792 76.608 
L 370.65974 74.304 
L 373.751688 72 
L 376.843636 69.696 
L 379.935584 67.392 
L 383.027532 65.088 
L 386.119481 62.784 
L 389.211429 60.48 
L 392.303377 58.176 
L 395.395325 55.872 
L 398.487273 53.568 
" clip-path="url(#paab3384e53)" style="fill: none; stroke: #ff0000; stroke-width: 1.5; stroke-linecap: square"/>
   </g>
   <g id="patch_3">
    <path d="M 57.6 307.584 
L 57.6 41.472 
" style="fill: none; stroke: #000000; stroke-width: 0.8; stroke-linejoin: miter; stroke-linecap: square"/>
   </g>
   <g id="patch_4">
    <path d="M 414.72 307.584 
L 414.72 41.472 
" style="fill: none; stroke: #000000; stroke-width: 0.8; stroke-linejoin: miter; stroke-linecap: square"/>
   </g>
   <g id="patch_5">
    <path d="M 57.6 307.584 
L 414.72 307.584 
" style="fill: none; stroke: #000000; stroke-width: 0.8; stroke-linejoin: miter; stroke-linecap: square"/>
   </g>
   <g id="patch_6">
    <path d="M 57.6 41.472 
L 414.72 41.472 
" style="fill: none; stroke: #000000; stroke-width: 0.8; stroke-linejoin: miter; stroke-linecap: square"/>
   </g>
   <g id="text_13">
    <!-- Spearman correlation coefficient [PUZZLE 32] [RNAQuANet]: 0.17 -->
    <g transform="translate(39.030937 35.472) scale(0.12 -0.12)">
     <defs>
      <path id="DejaVuSans-53" d="M 3425 4513 
L 3425 3897 
Q 3066 4069 2747 4153 
Q 2428 4238 2131 4238 
Q 1616 4238 1336 4038 
Q 1056 3838 1056 3469 
Q 1056 3159 1242 3001 
Q 1428 2844 1947 2747 
L 2328 2669 
Q 3034 2534 3370 2195 
Q 3706 1856 3706 1288 
Q 3706 609 3251 259 
Q 2797 -91 1919 -91 
Q 1588 -91 1214 -16 
Q 841 59 441 206 
L 441 856 
Q 825 641 1194 531 
Q 1563 422 1919 422 
Q 2459 422 2753 634 
Q 3047 847 3047 1241 
Q 3047 1584 2836 1778 
Q 2625 1972 2144 2069 
L 1759 2144 
Q 1053 2284 737 2584 
Q 422 2884 422 3419 
Q 422 4038 858 4394 
Q 1294 4750 2059 4750 
Q 2388 4750 2728 4690 
Q 3069 4631 3425 4513 
z
" transform="scale(0.015625)"/>
      <path id="DejaVuSans-70" d="M 1159 525 
L 1159 -1331 
L 581 -1331 
L 581 3500 
L 1159 3500 
L 1159 2969 
Q 1341 3281 1617 3432 
Q 1894 3584 2278 3584 
Q 2916 3584 3314 3078 
Q 3713 2572 3713 1747 
Q 3713 922 3314 415 
Q 2916 -91 2278 -91 
Q 1894 -91 1617 61 
Q 1341 213 1159 525 
z
M 3116 1747 
Q 3116 2381 2855 2742 
Q 2594 3103 2138 3103 
Q 1681 3103 1420 2742 
Q 1159 2381 1159 1747 
Q 1159 1113 1420 752 
Q 1681 391 2138 391 
Q 2594 391 2855 752 
Q 3116 1113 3116 1747 
z
" transform="scale(0.015625)"/>
      <path id="DejaVuSans-65" d="M 3597 1894 
L 3597 1613 
L 953 1613 
Q 991 1019 1311 708 
Q 1631 397 2203 397 
Q 2534 397 2845 478 
Q 3156 559 3463 722 
L 3463 178 
Q 3153 47 2828 -22 
Q 2503 -91 2169 -91 
Q 1331 -91 842 396 
Q 353 884 353 1716 
Q 353 2575 817 3079 
Q 1281 3584 2069 3584 
Q 2775 3584 3186 3129 
Q 3597 2675 3597 1894 
z
M 3022 2063 
Q 3016 2534 2758 2815 
Q 2500 3097 2075 3097 
Q 1594 3097 1305 2825 
Q 1016 2553 972 2059 
L 3022 2063 
z
" transform="scale(0.015625)"/>
      <path id="DejaVuSans-61" d="M 2194 1759 
Q 1497 1759 1228 1600 
Q 959 1441 959 1056 
Q 959 750 1161 570 
Q 1363 391 1709 391 
Q 2188 391 2477 730 
Q 2766 1069 2766 1631 
L 2766 1759 
L 2194 1759 
z
M 3341 1997 
L 3341 0 
L 2766 0 
L 2766 531 
Q 2569 213 2275 61 
Q 1981 -91 1556 -91 
Q 1019 -91 701 211 
Q 384 513 384 1019 
Q 384 1609 779 1909 
Q 1175 2209 1959 2209 
L 2766 2209 
L 2766 2266 
Q 2766 2663 2505 2880 
Q 2244 3097 1772 3097 
Q 1472 3097 1187 3025 
Q 903 2953 641 2809 
L 641 3341 
Q 956 3463 1253 3523 
Q 1550 3584 1831 3584 
Q 2591 3584 2966 3190 
Q 3341 2797 3341 1997 
z
" transform="scale(0.015625)"/>
      <path id="DejaVuSans-72" d="M 2631 2963 
Q 2534 3019 2420 3045 
Q 2306 3072 2169 3072 
Q 1681 3072 1420 2755 
Q 1159 2438 1159 1844 
L 1159 0 
L 581 0 
L 581 3500 
L 1159 3500 
L 1159 2956 
Q 1341 3275 1631 3429 
Q 1922 3584 2338 3584 
Q 2397 3584 2469 3576 
Q 2541 3569 2628 3553 
L 2631 2963 
z
" transform="scale(0.015625)"/>
      <path id="DejaVuSans-6d" d="M 3328 2828 
Q 3544 3216 3844 3400 
Q 4144 3584 4550 3584 
Q 5097 3584 5394 3201 
Q 5691 2819 5691 2113 
L 5691 0 
L 5113 0 
L 5113 2094 
Q 5113 2597 4934 2840 
Q 4756 3084 4391 3084 
Q 3944 3084 3684 2787 
Q 3425 2491 3425 1978 
L 3425 0 
L 2847 0 
L 2847 2094 
Q 2847 2600 2669 2842 
Q 2491 3084 2119 3084 
Q 1678 3084 1418 2786 
Q 1159 2488 1159 1978 
L 1159 0 
L 581 0 
L 581 3500 
L 1159 3500 
L 1159 2956 
Q 1356 3278 1631 3431 
Q 1906 3584 2284 3584 
Q 2666 3584 2933 3390 
Q 3200 3197 3328 2828 
z
" transform="scale(0.015625)"/>
      <path id="DejaVuSans-6e" d="M 3513 2113 
L 3513 0 
L 2938 0 
L 2938 2094 
Q 2938 2591 2744 2837 
Q 2550 3084 2163 3084 
Q 1697 3084 1428 2787 
Q 1159 2491 1159 1978 
L 1159 0 
L 581 0 
L 581 3500 
L 1159 3500 
L 1159 2956 
Q 1366 3272 1645 3428 
Q 1925 3584 2291 3584 
Q 2894 3584 3203 3211 
Q 3513 2838 3513 2113 
z
" transform="scale(0.015625)"/>
      <path id="DejaVuSans-20" transform="scale(0.015625)"/>
      <path id="DejaVuSans-63" d="M 3122 3366 
L 3122 2828 
Q 2878 2963 2633 3030 
Q 2388 3097 2138 3097 
Q 1578 3097 1268 2742 
Q 959 2388 959 1747 
Q 959 1106 1268 751 
Q 1578 397 2138 397 
Q 2388 397 2633 464 
Q 2878 531 3122 666 
L 3122 134 
Q 2881 22 2623 -34 
Q 2366 -91 2075 -91 
Q 1284 -91 818 406 
Q 353 903 353 1747 
Q 353 2603 823 3093 
Q 1294 3584 2113 3584 
Q 2378 3584 2631 3529 
Q 2884 3475 3122 3366 
z
" transform="scale(0.015625)"/>
      <path id="DejaVuSans-6f" d="M 1959 3097 
Q 1497 3097 1228 2736 
Q 959 2375 959 1747 
Q 959 1119 1226 758 
Q 1494 397 1959 397 
Q 2419 397 2687 759 
Q 2956 1122 2956 1747 
Q 2956 2369 2687 2733 
Q 2419 3097 1959 3097 
z
M 1959 3584 
Q 2709 3584 3137 3096 
Q 3566 2609 3566 1747 
Q 3566 888 3137 398 
Q 2709 -91 1959 -91 
Q 1206 -91 779 398 
Q 353 888 353 1747 
Q 353 2609 779 3096 
Q 1206 3584 1959 3584 
z
" transform="scale(0.015625)"/>
      <path id="DejaVuSans-6c" d="M 603 4863 
L 1178 4863 
L 1178 0 
L 603 0 
L 603 4863 
z
" transform="scale(0.015625)"/>
      <path id="DejaVuSans-74" d="M 1172 4494 
L 1172 3500 
L 2356 3500 
L 2356 3053 
L 1172 3053 
L 1172 1153 
Q 1172 725 1289 603 
Q 1406 481 1766 481 
L 2356 481 
L 2356 0 
L 1766 0 
Q 1100 0 847 248 
Q 594 497 594 1153 
L 594 3053 
L 172 3053 
L 172 3500 
L 594 3500 
L 594 4494 
L 1172 4494 
z
" transform="scale(0.015625)"/>
      <path id="DejaVuSans-69" d="M 603 3500 
L 1178 3500 
L 1178 0 
L 603 0 
L 603 3500 
z
M 603 4863 
L 1178 4863 
L 1178 4134 
L 603 4134 
L 603 4863 
z
" transform="scale(0.015625)"/>
      <path id="DejaVuSans-66" d="M 2375 4863 
L 2375 4384 
L 1825 4384 
Q 1516 4384 1395 4259 
Q 1275 4134 1275 3809 
L 1275 3500 
L 2222 3500 
L 2222 3053 
L 1275 3053 
L 1275 0 
L 697 0 
L 697 3053 
L 147 3053 
L 147 3500 
L 697 3500 
L 697 3744 
Q 697 4328 969 4595 
Q 1241 4863 1831 4863 
L 2375 4863 
z
" transform="scale(0.015625)"/>
      <path id="DejaVuSans-5b" d="M 550 4863 
L 1875 4863 
L 1875 4416 
L 1125 4416 
L 1125 -397 
L 1875 -397 
L 1875 -844 
L 550 -844 
L 550 4863 
z
" transform="scale(0.015625)"/>
      <path id="DejaVuSans-50" d="M 1259 4147 
L 1259 2394 
L 2053 2394 
Q 2494 2394 2734 2622 
Q 2975 2850 2975 3272 
Q 2975 3691 2734 3919 
Q 2494 4147 2053 4147 
L 1259 4147 
z
M 628 4666 
L 2053 4666 
Q 2838 4666 3239 4311 
Q 3641 3956 3641 3272 
Q 3641 2581 3239 2228 
Q 2838 1875 2053 1875 
L 1259 1875 
L 1259 0 
L 628 0 
L 628 4666 
z
" transform="scale(0.015625)"/>
      <path id="DejaVuSans-55" d="M 556 4666 
L 1191 4666 
L 1191 1831 
Q 1191 1081 1462 751 
Q 1734 422 2344 422 
Q 2950 422 3222 751 
Q 3494 1081 3494 1831 
L 3494 4666 
L 4128 4666 
L 4128 1753 
Q 4128 841 3676 375 
Q 3225 -91 2344 -91 
Q 1459 -91 1007 375 
Q 556 841 556 1753 
L 556 4666 
z
" transform="scale(0.015625)"/>
      <path id="DejaVuSans-5a" d="M 359 4666 
L 4025 4666 
L 4025 4184 
L 1075 531 
L 4097 531 
L 4097 0 
L 288 0 
L 288 481 
L 3238 4134 
L 359 4134 
L 359 4666 
z
" transform="scale(0.015625)"/>
      <path id="DejaVuSans-4c" d="M 628 4666 
L 1259 4666 
L 1259 531 
L 3531 531 
L 3531 0 
L 628 0 
L 628 4666 
z
" transform="scale(0.015625)"/>
      <path id="DejaVuSans-45" d="M 628 4666 
L 3578 4666 
L 3578 4134 
L 1259 4134 
L 1259 2753 
L 3481 2753 
L 3481 2222 
L 1259 2222 
L 1259 531 
L 3634 531 
L 3634 0 
L 628 0 
L 628 4666 
z
" transform="scale(0.015625)"/>
      <path id="DejaVuSans-33" d="M 2597 2516 
Q 3050 2419 3304 2112 
Q 3559 1806 3559 1356 
Q 3559 666 3084 287 
Q 2609 -91 1734 -91 
Q 1441 -91 1130 -33 
Q 819 25 488 141 
L 488 750 
Q 750 597 1062 519 
Q 1375 441 1716 441 
Q 2309 441 2620 675 
Q 2931 909 2931 1356 
Q 2931 1769 2642 2001 
Q 2353 2234 1838 2234 
L 1294 2234 
L 1294 2753 
L 1863 2753 
Q 2328 2753 2575 2939 
Q 2822 3125 2822 3475 
Q 2822 3834 2567 4026 
Q 2313 4219 1838 4219 
Q 1578 4219 1281 4162 
Q 984 4106 628 3988 
L 628 4550 
Q 988 4650 1302 4700 
Q 1616 4750 1894 4750 
Q 2613 4750 3031 4423 
Q 3450 4097 3450 3541 
Q 3450 3153 3228 2886 
Q 3006 2619 2597 2516 
z
" transform="scale(0.015625)"/>
      <path id="DejaVuSans-5d" d="M 1947 4863 
L 1947 -844 
L 622 -844 
L 622 -397 
L 1369 -397 
L 1369 4416 
L 622 4416 
L 622 4863 
L 1947 4863 
z
" transform="scale(0.015625)"/>
      <path id="DejaVuSans-52" d="M 2841 2188 
Q 3044 2119 3236 1894 
Q 3428 1669 3622 1275 
L 4263 0 
L 3584 0 
L 2988 1197 
Q 2756 1666 2539 1819 
Q 2322 1972 1947 1972 
L 1259 1972 
L 1259 0 
L 628 0 
L 628 4666 
L 2053 4666 
Q 2853 4666 3247 4331 
Q 3641 3997 3641 3322 
Q 3641 2881 3436 2590 
Q 3231 2300 2841 2188 
z
M 1259 4147 
L 1259 2491 
L 2053 2491 
Q 2509 2491 2742 2702 
Q 2975 2913 2975 3322 
Q 2975 3731 2742 3939 
Q 2509 4147 2053 4147 
L 1259 4147 
z
" transform="scale(0.015625)"/>
      <path id="DejaVuSans-4e" d="M 628 4666 
L 1478 4666 
L 3547 763 
L 3547 4666 
L 4159 4666 
L 4159 0 
L 3309 0 
L 1241 3903 
L 1241 0 
L 628 0 
L 628 4666 
z
" transform="scale(0.015625)"/>
      <path id="DejaVuSans-41" d="M 2188 4044 
L 1331 1722 
L 3047 1722 
L 2188 4044 
z
M 1831 4666 
L 2547 4666 
L 4325 0 
L 3669 0 
L 3244 1197 
L 1141 1197 
L 716 0 
L 50 0 
L 1831 4666 
z
" transform="scale(0.015625)"/>
      <path id="DejaVuSans-51" d="M 2522 4238 
Q 1834 4238 1429 3725 
Q 1025 3213 1025 2328 
Q 1025 1447 1429 934 
Q 1834 422 2522 422 
Q 3209 422 3611 934 
Q 4013 1447 4013 2328 
Q 4013 3213 3611 3725 
Q 3209 4238 2522 4238 
z
M 3406 84 
L 4238 -825 
L 3475 -825 
L 2784 -78 
Q 2681 -84 2626 -87 
Q 2572 -91 2522 -91 
Q 1538 -91 948 567 
Q 359 1225 359 2328 
Q 359 3434 948 4092 
Q 1538 4750 2522 4750 
Q 3503 4750 4090 4092 
Q 4678 3434 4678 2328 
Q 4678 1516 4351 937 
Q 4025 359 3406 84 
z
" transform="scale(0.015625)"/>
      <path id="DejaVuSans-75" d="M 544 1381 
L 544 3500 
L 1119 3500 
L 1119 1403 
Q 1119 906 1312 657 
Q 1506 409 1894 409 
Q 2359 409 2629 706 
Q 2900 1003 2900 1516 
L 2900 3500 
L 3475 3500 
L 3475 0 
L 2900 0 
L 2900 538 
Q 2691 219 2414 64 
Q 2138 -91 1772 -91 
Q 1169 -91 856 284 
Q 544 659 544 1381 
z
M 1991 3584 
L 1991 3584 
z
" transform="scale(0.015625)"/>
      <path id="DejaVuSans-3a" d="M 750 794 
L 1409 794 
L 1409 0 
L 750 0 
L 750 794 
z
M 750 3309 
L 1409 3309 
L 1409 2516 
L 750 2516 
L 750 3309 
z
" transform="scale(0.015625)"/>
      <path id="DejaVuSans-2e" d="M 684 794 
L 1344 794 
L 1344 0 
L 684 0 
L 684 794 
z
" transform="scale(0.015625)"/>
      <path id="DejaVuSans-37" d="M 525 4666 
L 3525 4666 
L 3525 4397 
L 1831 0 
L 1172 0 
L 2766 4134 
L 525 4134 
L 525 4666 
z
" transform="scale(0.015625)"/>
     </defs>
     <use xlink:href="#DejaVuSans-53"/>
     <use xlink:href="#DejaVuSans-70" x="63.476562"/>
     <use xlink:href="#DejaVuSans-65" x="126.953125"/>
     <use xlink:href="#DejaVuSans-61" x="188.476562"/>
     <use xlink:href="#DejaVuSans-72" x="249.755859"/>
     <use xlink:href="#DejaVuSans-6d" x="289.119141"/>
     <use xlink:href="#DejaVuSans-61" x="386.53125"/>
     <use xlink:href="#DejaVuSans-6e" x="447.810547"/>
     <use xlink:href="#DejaVuSans-20" x="511.189453"/>
     <use xlink:href="#DejaVuSans-63" x="542.976562"/>
     <use xlink:href="#DejaVuSans-6f" x="597.957031"/>
     <use xlink:href="#DejaVuSans-72" x="659.138672"/>
     <use xlink:href="#DejaVuSans-72" x="698.501953"/>
     <use xlink:href="#DejaVuSans-65" x="737.365234"/>
     <use xlink:href="#DejaVuSans-6c" x="798.888672"/>
     <use xlink:href="#DejaVuSans-61" x="826.671875"/>
     <use xlink:href="#DejaVuSans-74" x="887.951172"/>
     <use xlink:href="#DejaVuSans-69" x="927.160156"/>
     <use xlink:href="#DejaVuSans-6f" x="954.943359"/>
     <use xlink:href="#DejaVuSans-6e" x="1016.125"/>
     <use xlink:href="#DejaVuSans-20" x="1079.503906"/>
     <use xlink:href="#DejaVuSans-63" x="1111.291016"/>
     <use xlink:href="#DejaVuSans-6f" x="1166.271484"/>
     <use xlink:href="#DejaVuSans-65" x="1227.453125"/>
     <use xlink:href="#DejaVuSans-66" x="1288.976562"/>
     <use xlink:href="#DejaVuSans-66" x="1324.181641"/>
     <use xlink:href="#DejaVuSans-69" x="1359.386719"/>
     <use xlink:href="#DejaVuSans-63" x="1387.169922"/>
     <use xlink:href="#DejaVuSans-69" x="1442.150391"/>
     <use xlink:href="#DejaVuSans-65" x="1469.933594"/>
     <use xlink:href="#DejaVuSans-6e" x="1531.457031"/>
     <use xlink:href="#DejaVuSans-74" x="1594.835938"/>
     <use xlink:href="#DejaVuSans-20" x="1634.044922"/>
     <use xlink:href="#DejaVuSans-5b" x="1665.832031"/>
     <use xlink:href="#DejaVuSans-50" x="1704.845703"/>
     <use xlink:href="#DejaVuSans-55" x="1765.148438"/>
     <use xlink:href="#DejaVuSans-5a" x="1836.591797"/>
     <use xlink:href="#DejaVuSans-5a" x="1905.097656"/>
     <use xlink:href="#DejaVuSans-4c" x="1973.603516"/>
     <use xlink:href="#DejaVuSans-45" x="2029.316406"/>
     <use xlink:href="#DejaVuSans-20" x="2092.5"/>
     <use xlink:href="#DejaVuSans-33" x="2124.287109"/>
     <use xlink:href="#DejaVuSans-32" x="2187.910156"/>
     <use xlink:href="#DejaVuSans-5d" x="2251.533203"/>
     <use xlink:href="#DejaVuSans-20" x="2290.546875"/>
     <use xlink:href="#DejaVuSans-5b" x="2322.333984"/>
     <use xlink:href="#DejaVuSans-52" x="2361.347656"/>
     <use xlink:href="#DejaVuSans-4e" x="2430.830078"/>
     <use xlink:href="#DejaVuSans-41" x="2505.634766"/>
     <use xlink:href="#DejaVuSans-51" x="2572.292969"/>
     <use xlink:href="#DejaVuSans-75" x="2651.003906"/>
     <use xlink:href="#DejaVuSans-41" x="2714.382812"/>
     <use xlink:href="#DejaVuSans-4e" x="2782.791016"/>
     <use xlink:href="#DejaVuSans-65" x="2857.595703"/>
     <use xlink:href="#DejaVuSans-74" x="2919.119141"/>
     <use xlink:href="#DejaVuSans-5d" x="2958.328125"/>
     <use xlink:href="#DejaVuSans-3a" x="2997.341797"/>
     <use xlink:href="#DejaVuSans-20" x="3031.033203"/>
     <use xlink:href="#DejaVuSans-30" x="3062.820312"/>
     <use xlink:href="#DejaVuSans-2e" x="3126.443359"/>
     <use xlink:href="#DejaVuSans-31" x="3158.230469"/>
     <use xlink:href="#DejaVuSans-37" x="3221.853516"/>
    </g>
   </g>
  </g>
 </g>
 <defs>
  <clipPath id="paab3384e53">
   <rect x="57.6" y="41.472" width="357.12" height="266.112"/>
  </clipPath>
 </defs>
</svg>
