<svg xmlns="http://www.w3.org/2000/svg" xmlns:xlink="http://www.w3.org/1999/xlink" version="1.1" class="marks" width="739" height="734" viewBox="0 0 739 734"><rect width="739" height="734" fill="white"/><g fill="none" stroke-miterlimit="10" transform="translate(42,27)"><g class="mark-group role-frame root" role="graphics-object" aria-roledescription="group mark container"><g transform="translate(0,0)"><path class="background" aria-hidden="true" d="M0.5,0.5h500v500h-500Z" stroke="#ddd"/><g><g class="mark-group role-axis" aria-hidden="true"><g transform="translate(0.5,0.5)"><path class="background" aria-hidden="true" d="M0,0h0v0h0Z" pointer-events="none"/><g><g class="mark-rule role-axis-grid" pointer-events="none"><line transform="translate(0,500)" x2="500" y2="0" stroke="#ddd" stroke-width="1" opacity="1"/><line transform="translate(0,472)" x2="500" y2="0" stroke="#ddd" stroke-width="1" opacity="1"/><line transform="translate(0,444)" x2="500" y2="0" stroke="#ddd" stroke-width="1" opacity="1"/><line transform="translate(0,417)" x2="500" y2="0" stroke="#ddd" stroke-width="1" opacity="1"/><line transform="translate(0,389)" x2="500" y2="0" stroke="#ddd" stroke-width="1" opacity="1"/><line transform="translate(0,361)" x2="500" y2="0" stroke="#ddd" stroke-width="1" opacity="1"/><line transform="translate(0,333)" x2="500" y2="0" stroke="#ddd" stroke-width="1" opacity="1"/><line transform="translate(0,306)" x2="500" y2="0" stroke="#ddd" stroke-width="1" opacity="1"/><line transform="translate(0,278)" x2="500" y2="0" stroke="#ddd" stroke-width="1" opacity="1"/><line transform="translate(0,250)" x2="500" y2="0" stroke="#ddd" stroke-width="1" opacity="1"/><line transform="translate(0,222)" x2="500" y2="0" stroke="#ddd" stroke-width="1" opacity="1"/><line transform="translate(0,194)" x2="500" y2="0" stroke="#ddd" stroke-width="1" opacity="1"/><line transform="translate(0,167)" x2="500" y2="0" stroke="#ddd" stroke-width="1" opacity="1"/><line transform="translate(0,139)" x2="500" y2="0" stroke="#ddd" stroke-width="1" opacity="1"/><line transform="translate(0,111)" x2="500" y2="0" stroke="#ddd" stroke-width="1" opacity="1"/><line transform="translate(0,83)" x2="500" y2="0" stroke="#ddd" stroke-width="1" opacity="1"/><line transform="translate(0,56)" x2="500" y2="0" stroke="#ddd" stroke-width="1" opacity="1"/><line transform="translate(0,28)" x2="500" y2="0" stroke="#ddd" stroke-width="1" opacity="1"/><line transform="translate(0,0)" x2="500" y2="0" stroke="#ddd" stroke-width="1" opacity="1"/></g></g><path class="foreground" aria-hidden="true" d="" pointer-events="none" display="none"/></g></g><g class="mark-group role-axis" role="graphics-symbol" aria-roledescription="axis" aria-label="X-axis titled 'group' for a discrete scale with 9 values: ARES, LOCIPARSE, LOCIPARSE ARES, LOCIPARSE self-trained, RNAQuANet contrastive train with limited features,trained using LOCIPARSE, ending with RNAQuANet, trained using LOCIPARSE"><g transform="translate(0.5,500.5)"><path class="background" aria-hidden="true" d="M0,0h0v0h0Z" pointer-events="none"/><g><g class="mark-rule role-axis-tick" pointer-events="none"><line transform="translate(27,0)" x2="0" y2="5" stroke="#888" stroke-width="1" opacity="1"/><line transform="translate(83,0)" x2="0" y2="5" stroke="#888" stroke-width="1" opacity="1"/><line transform="translate(138,0)" x2="0" y2="5" stroke="#888" stroke-width="1" opacity="1"/><line transform="translate(194,0)" x2="0" y2="5" stroke="#888" stroke-width="1" opacity="1"/><line transform="translate(250,0)" x2="0" y2="5" stroke="#888" stroke-width="1" opacity="1"/><line transform="translate(305,0)" x2="0" y2="5" stroke="#888" stroke-width="1" opacity="1"/><line transform="translate(361,0)" x2="0" y2="5" stroke="#888" stroke-width="1" opacity="1"/><line transform="translate(416,0)" x2="0" y2="5" stroke="#888" stroke-width="1" opacity="1"/><line transform="translate(472,0)" x2="0" y2="5" stroke="#888" stroke-width="1" opacity="1"/></g><g class="mark-text role-axis-label" pointer-events="none"><text text-anchor="end" transform="translate(27.27777777777778,7) rotate(270) translate(0,3)" font-family="sans-serif" font-size="10px" fill="#000" opacity="1">ARES</text><text text-anchor="end" transform="translate(82.83333333333334,7) rotate(270) translate(0,3)" font-family="sans-serif" font-size="10px" fill="#000" opacity="1">LOCIPARSE</text><text text-anchor="end" transform="translate(138.38888888888889,7) rotate(270) translate(0,3)" font-family="sans-serif" font-size="10px" fill="#000" opacity="1">LOCIPARSE ARES</text><text text-anchor="end" transform="translate(193.94444444444446,7) rotate(270) translate(0,3)" font-family="sans-serif" font-size="10px" fill="#000" opacity="1">LOCIPARSE self-trained</text><text text-anchor="end" transform="translate(249.5,7) rotate(270) translate(0,3)" font-family="sans-serif" font-size="10px" fill="#000" opacity="1">RNAQuANet contrastive train with li…</text><text text-anchor="end" transform="translate(305.05555555555554,7) rotate(270) translate(0,3)" font-family="sans-serif" font-size="10px" fill="#000" opacity="1">RNAQuANet contrastive train, traine…</text><text text-anchor="end" transform="translate(360.61111111111114,7) rotate(270) translate(0,3)" font-family="sans-serif" font-size="10px" fill="#000" opacity="1">RNAQuANet limited features, traine…</text><text text-anchor="end" transform="translate(416.1666666666667,7) rotate(270) translate(0,3)" font-family="sans-serif" font-size="10px" fill="#000" opacity="1">RNAQuANet limited features, traine…</text><text text-anchor="end" transform="translate(471.72222222222223,7) rotate(270) translate(0,3)" font-family="sans-serif" font-size="10px" fill="#000" opacity="1">RNAQuANet, trained using LOCIPARSE</text></g><g class="mark-rule role-axis-domain" pointer-events="none"><line transform="translate(0,0)" x2="500" y2="0" stroke="#888" stroke-width="1" opacity="1"/></g><g class="mark-text role-axis-title" pointer-events="none"><text text-anchor="middle" transform="translate(250,199.06985473632812)" font-family="sans-serif" font-size="11px" font-weight="bold" fill="#000" opacity="1">group</text></g></g><path class="foreground" aria-hidden="true" d="" pointer-events="none" display="none"/></g></g><g class="mark-group role-axis" role="graphics-symbol" aria-roledescription="axis" aria-label="Y-axis titled 'position' for a linear scale with values from 0 to 9"><g transform="translate(0.5,0.5)"><path class="background" aria-hidden="true" d="M0,0h0v0h0Z" pointer-events="none"/><g><g class="mark-rule role-axis-tick" pointer-events="none"><line transform="translate(0,500)" x2="-5" y2="0" stroke="#888" stroke-width="1" opacity="1"/><line transform="translate(0,472)" x2="-5" y2="0" stroke="#888" stroke-width="1" opacity="1"/><line transform="translate(0,444)" x2="-5" y2="0" stroke="#888" stroke-width="1" opacity="1"/><line transform="translate(0,417)" x2="-5" y2="0" stroke="#888" stroke-width="1" opacity="1"/><line transform="translate(0,389)" x2="-5" y2="0" stroke="#888" stroke-width="1" opacity="1"/><line transform="translate(0,361)" x2="-5" y2="0" stroke="#888" stroke-width="1" opacity="1"/><line transform="translate(0,333)" x2="-5" y2="0" stroke="#888" stroke-width="1" opacity="1"/><line transform="translate(0,306)" x2="-5" y2="0" stroke="#888" stroke-width="1" opacity="1"/><line transform="translate(0,278)" x2="-5" y2="0" stroke="#888" stroke-width="1" opacity="1"/><line transform="translate(0,250)" x2="-5" y2="0" stroke="#888" stroke-width="1" opacity="1"/><line transform="translate(0,222)" x2="-5" y2="0" stroke="#888" stroke-width="1" opacity="1"/><line transform="translate(0,194)" x2="-5" y2="0" stroke="#888" stroke-width="1" opacity="1"/><line transform="translate(0,167)" x2="-5" y2="0" stroke="#888" stroke-width="1" opacity="1"/><line transform="translate(0,139)" x2="-5" y2="0" stroke="#888" stroke-width="1" opacity="1"/><line transform="translate(0,111)" x2="-5" y2="0" stroke="#888" stroke-width="1" opacity="1"/><line transform="translate(0,83)" x2="-5" y2="0" stroke="#888" stroke-width="1" opacity="1"/><line transform="translate(0,56)" x2="-5" y2="0" stroke="#888" stroke-width="1" opacity="1"/><line transform="translate(0,28)" x2="-5" y2="0" stroke="#888" stroke-width="1" opacity="1"/><line transform="translate(0,0)" x2="-5" y2="0" stroke="#888" stroke-width="1" opacity="1"/></g><g class="mark-text role-axis-label" pointer-events="none"><text text-anchor="end" transform="translate(-7,503)" font-family="sans-serif" font-size="10px" fill="#000" opacity="1">0.0</text><text text-anchor="end" transform="translate(-7,475.22222222222223)" font-family="sans-serif" font-size="10px" fill="#000" opacity="1">0.5</text><text text-anchor="end" transform="translate(-7,447.4444444444444)" font-family="sans-serif" font-size="10px" fill="#000" opacity="1">1.0</text><text text-anchor="end" transform="translate(-7,419.6666666666667)" font-family="sans-serif" font-size="10px" fill="#000" opacity="1">1.5</text><text text-anchor="end" transform="translate(-7,391.8888888888889)" font-family="sans-serif" font-size="10px" fill="#000" opacity="1">2.0</text><text text-anchor="end" transform="translate(-7,364.1111111111111)" font-family="sans-serif" font-size="10px" fill="#000" opacity="1">2.5</text><text text-anchor="end" transform="translate(-7,336.33333333333337)" font-family="sans-serif" font-size="10px" fill="#000" opacity="1">3.0</text><text text-anchor="end" transform="translate(-7,308.5555555555556)" font-family="sans-serif" font-size="10px" fill="#000" opacity="1">3.5</text><text text-anchor="end" transform="translate(-7,280.77777777777777)" font-family="sans-serif" font-size="10px" fill="#000" opacity="1">4.0</text><text text-anchor="end" transform="translate(-7,253)" font-family="sans-serif" font-size="10px" fill="#000" opacity="1">4.5</text><text text-anchor="end" transform="translate(-7,225.2222222222222)" font-family="sans-serif" font-size="10px" fill="#000" opacity="1">5.0</text><text text-anchor="end" transform="translate(-7,197.44444444444443)" font-family="sans-serif" font-size="10px" fill="#000" opacity="1">5.5</text><text text-anchor="end" transform="translate(-7,169.66666666666669)" font-family="sans-serif" font-size="10px" fill="#000" opacity="1">6.0</text><text text-anchor="end" transform="translate(-7,141.88888888888889)" font-family="sans-serif" font-size="10px" fill="#000" opacity="1">6.5</text><text text-anchor="end" transform="translate(-7,114.1111111111111)" font-family="sans-serif" font-size="10px" fill="#000" opacity="1">7.0</text><text text-anchor="end" transform="translate(-7,86.33333333333331)" font-family="sans-serif" font-size="10px" fill="#000" opacity="1">7.5</text><text text-anchor="end" transform="translate(-7,58.55555555555558)" font-family="sans-serif" font-size="10px" fill="#000" opacity="1">8.0</text><text text-anchor="end" transform="translate(-7,30.77777777777779)" font-family="sans-serif" font-size="10px" fill="#000" opacity="1">8.5</text><text text-anchor="end" transform="translate(-7,3)" font-family="sans-serif" font-size="10px" fill="#000" opacity="1">9.0</text></g><g class="mark-rule role-axis-domain" pointer-events="none"><line transform="translate(0,500)" x2="0" y2="-500" stroke="#888" stroke-width="1" opacity="1"/></g><g class="mark-text role-axis-title" pointer-events="none"><text text-anchor="middle" transform="translate(-25.1199951171875,250) rotate(-90) translate(0,-2)" font-family="sans-serif" font-size="11px" font-weight="bold" fill="#000" opacity="1">position</text></g></g><path class="foreground" aria-hidden="true" d="" pointer-events="none" display="none"/></g></g><g class="mark-symbol role-mark layer_0_layer_0_marks" role="graphics-object" aria-roledescription="symbol mark container"><path aria-label="group: LOCIPARSE; position: 8" role="graphics-symbol" aria-roledescription="point" transform="translate(83.33333333333334,55.55555555555558)" d="M2.739,0A2.739,2.739,0,1,1,-2.739,0A2.739,2.739,0,1,1,2.739,0" stroke="#f58518" stroke-width="2" opacity="0.7"/><path aria-label="group: LOCIPARSE; position: 9" role="graphics-symbol" aria-roledescription="point" transform="translate(83.33333333333334,0)" d="M2.739,0A2.739,2.739,0,1,1,-2.739,0A2.739,2.739,0,1,1,2.739,0" stroke="#f58518" stroke-width="2" opacity="0.7"/><path aria-label="group: LOCIPARSE self-trained; position: 9" role="graphics-symbol" aria-roledescription="point" transform="translate(194.44444444444446,0)" d="M2.739,0A2.739,2.739,0,1,1,-2.739,0A2.739,2.739,0,1,1,2.739,0" stroke="#72b7b2" stroke-width="2" opacity="0.7"/><path aria-label="group: RNAQuANet limited features, trained using RNAQuANet; position: 3" role="graphics-symbol" aria-roledescription="point" transform="translate(416.6666666666667,333.33333333333337)" d="M2.739,0A2.739,2.739,0,1,1,-2.739,0A2.739,2.739,0,1,1,2.739,0" stroke="#ff9da6" stroke-width="2" opacity="0.7"/><path aria-label="group: RNAQuANet limited features, trained using RNAQuANet; position: 1" role="graphics-symbol" aria-roledescription="point" transform="translate(416.6666666666667,444.4444444444444)" d="M2.739,0A2.739,2.739,0,1,1,-2.739,0A2.739,2.739,0,1,1,2.739,0" stroke="#ff9da6" stroke-width="2" opacity="0.7"/><path aria-label="group: RNAQuANet limited features, trained using RNAQuANet; position: 3" role="graphics-symbol" aria-roledescription="point" transform="translate(416.6666666666667,333.33333333333337)" d="M2.739,0A2.739,2.739,0,1,1,-2.739,0A2.739,2.739,0,1,1,2.739,0" stroke="#ff9da6" stroke-width="2" opacity="0.7"/><path aria-label="group: RNAQuANet contrastive train with limited features,trained using LOCIPARSE; position: 1" role="graphics-symbol" aria-roledescription="point" transform="translate(250,444.4444444444444)" d="M2.739,0A2.739,2.739,0,1,1,-2.739,0A2.739,2.739,0,1,1,2.739,0" stroke="#54a24b" stroke-width="2" opacity="0.7"/></g><g class="mark-rule role-mark layer_0_layer_1_layer_0_marks" aria-hidden="true"><line transform="translate(27.77777777777778,444.4444444444444)" x2="0" y2="-125" stroke="black"/><line transform="translate(138.88888888888889,444.4444444444444)" x2="0" y2="-55.555555555555486" stroke="black"/><line transform="translate(83.33333333333334,444.4444444444444)" x2="0" y2="-55.555555555555486" stroke="black"/><line transform="translate(194.44444444444446,444.4444444444444)" x2="0" y2="-55.555555555555486" stroke="black"/><line transform="translate(472.22222222222223,444.4444444444444)" x2="0" y2="-125" stroke="black"/><line transform="translate(361.11111111111114,388.8888888888889)" x2="0" y2="-111.11111111111114" stroke="black"/><line transform="translate(416.6666666666667,111.1111111111111)" x2="0" y2="-13.888888888888886" stroke="black"/><line transform="translate(305.55555555555554,444.4444444444444)" x2="0" y2="-125" stroke="black"/><line transform="translate(250,333.33333333333337)" x2="0" y2="-125.00000000000006" stroke="black"/></g><g class="mark-rule role-mark layer_0_layer_1_layer_1_marks" aria-hidden="true"><line transform="translate(27.77777777777778,111.1111111111111)" x2="0" y2="-111.1111111111111" stroke="black"/><line transform="translate(138.88888888888889,277.77777777777777)" x2="0" y2="-166.66666666666669" stroke="black"/><line transform="translate(83.33333333333334,277.77777777777777)" x2="0" y2="-166.66666666666669" stroke="black"/><line transform="translate(194.44444444444446,277.77777777777777)" x2="0" y2="-111.11111111111109" stroke="black"/><line transform="translate(472.22222222222223,69.44444444444441)" x2="0" y2="-69.44444444444441" stroke="black"/><line transform="translate(361.11111111111114,111.1111111111111)" x2="0" y2="-111.1111111111111" stroke="black"/><line transform="translate(416.6666666666667,0)" x2="0" y2="0" stroke="black"/><line transform="translate(305.55555555555554,166.66666666666669)" x2="0" y2="-166.66666666666669" stroke="black"/><line transform="translate(250,69.44444444444441)" x2="0" y2="-69.44444444444441" stroke="black"/></g><g class="mark-rect role-mark layer_1_layer_0_marks" role="graphics-object" aria-roledescription="rect mark container"><path aria-label="group: ARES; position: 3.25; upper_box_position: 7; Max of position: 9; Q3 of position: 7; Median of position: 6; Q1 of position: 3.25; Min of position: 1" role="graphics-symbol" aria-roledescription="box" d="M12.777777777777779,111.1111111111111h30v208.33333333333331h-30Z" fill="#4c78a8"/><path aria-label="group: LOCIPARSE ARES; position: 2; upper_box_position: 4; Max of position: 7; Q3 of position: 4; Median of position: 2.5; Q1 of position: 2; Min of position: 1" role="graphics-symbol" aria-roledescription="box" d="M123.88888888888889,277.77777777777777h30v111.11111111111114h-30Z" fill="#e45756"/><path aria-label="group: LOCIPARSE; position: 2; upper_box_position: 4; Max of position: 9; Q3 of position: 4; Median of position: 3; Q1 of position: 2; Min of position: 1" role="graphics-symbol" aria-roledescription="box" d="M68.33333333333334,277.77777777777777h30v111.11111111111114h-30Z" fill="#f58518"/><path aria-label="group: LOCIPARSE self-trained; position: 2; upper_box_position: 4; Max of position: 9; Q3 of position: 4; Median of position: 3; Q1 of position: 2; Min of position: 1" role="graphics-symbol" aria-roledescription="box" d="M179.44444444444446,277.77777777777777h30v111.11111111111114h-30Z" fill="#72b7b2"/><path aria-label="group: RNAQuANet, trained using LOCIPARSE; position: 3.25; upper_box_position: 7.75; Max of position: 9; Q3 of position: 7.75; Median of position: 6; Q1 of position: 3.25; Min of position: 1" role="graphics-symbol" aria-roledescription="box" d="M457.22222222222223,69.44444444444441h30v250h-30Z" fill="#9d755d"/><path aria-label="group: RNAQuANet limited features, trained using LOCIPARSE; position: 4; upper_box_position: 7; Max of position: 9; Q3 of position: 7; Median of position: 5; Q1 of position: 4; Min of position: 2" role="graphics-symbol" aria-roledescription="box" d="M346.11111111111114,111.1111111111111h30v166.66666666666669h-30Z" fill="#b279a2"/><path aria-label="group: RNAQuANet limited features, trained using RNAQuANet; position: 7.25; upper_box_position: 9; Max of position: 9; Q3 of position: 9; Median of position: 9; Q1 of position: 7.25; Min of position: 1" role="graphics-symbol" aria-roledescription="box" d="M401.6666666666667,0h30v97.22222222222221h-30Z" fill="#ff9da6"/><path aria-label="group: RNAQuANet contrastive train, trained using LOCIPARSE; position: 3.25; upper_box_position: 6; Max of position: 9; Q3 of position: 6; Median of position: 5; Q1 of position: 3.25; Min of position: 1" role="graphics-symbol" aria-roledescription="box" d="M290.55555555555554,166.66666666666669h30v152.77777777777771h-30Z" fill="#eeca3b"/><path aria-label="group: RNAQuANet contrastive train with limited features,trained using LOCIPARSE; position: 5.25; upper_box_position: 7.75; Max of position: 9; Q3 of position: 7.75; Median of position: 6; Q1 of position: 5.25; Min of position: 1" role="graphics-symbol" aria-roledescription="box" d="M235,69.44444444444441h30v138.8888888888889h-30Z" fill="#54a24b"/></g><g class="mark-rect role-mark layer_1_layer_1_marks" aria-hidden="true"><path d="M12.777777777777779,166.16666666666669h30v1h-30Z" fill="white" opacity="0.7"/><path d="M123.88888888888889,360.6111111111111h30v1h-30Z" fill="white" opacity="0.7"/><path d="M68.33333333333334,332.83333333333337h30v1h-30Z" fill="white" opacity="0.7"/><path d="M179.44444444444446,332.83333333333337h30v1h-30Z" fill="white" opacity="0.7"/><path d="M457.22222222222223,166.16666666666669h30v1h-30Z" fill="white" opacity="0.7"/><path d="M346.11111111111114,221.7222222222222h30v1h-30Z" fill="white" opacity="0.7"/><path d="M401.6666666666667,-0.5h30v1h-30Z" fill="white" opacity="0.7"/><path d="M290.55555555555554,221.7222222222222h30v1h-30Z" fill="white" opacity="0.7"/><path d="M235,166.16666666666669h30v1h-30Z" fill="white" opacity="0.7"/></g><g class="mark-group role-legend" role="graphics-symbol" aria-roledescription="legend" aria-label="Symbol legend titled 'group' for fill color and stroke color with 9 values: ARES, LOCIPARSE, LOCIPARSE ARES, LOCIPARSE self-trained, RNAQuANet contrastive train with limited features,trained using LOCIPARSE, ending with RNAQuANet, trained using LOCIPARSE"><g transform="translate(518,0)"><path class="background" aria-hidden="true" d="M0,0h174v157h-174Z" pointer-events="none"/><g><g class="mark-group role-legend-entry"><g transform="translate(0,16)"><path class="background" aria-hidden="true" d="M0,0h0v0h0Z" pointer-events="none"/><g><g class="mark-group role-scope" role="graphics-object" aria-roledescription="group mark container"><g transform="translate(0,0)"><path class="background" aria-hidden="true" d="M0,0h173.76986694335938v12.5h-173.76986694335938Z" pointer-events="none" opacity="1"/><g><g class="mark-symbol role-legend-symbol" pointer-events="none"><path transform="translate(6,6)" d="M5,0A5,5,0,1,1,-5,0A5,5,0,1,1,5,0" fill="#4c78a8" stroke="#4c78a8" stroke-width="1.5" opacity="0.7"/></g><g class="mark-text role-legend-label" pointer-events="none"><text text-anchor="start" transform="translate(16,9)" font-family="sans-serif" font-size="10px" fill="#000" opacity="1">ARES</text></g></g><path class="foreground" aria-hidden="true" d="" pointer-events="none" display="none"/></g><g transform="translate(0,16)"><path class="background" aria-hidden="true" d="M0,0h173.76986694335938v12.5h-173.76986694335938Z" pointer-events="none" opacity="1"/><g><g class="mark-symbol role-legend-symbol" pointer-events="none"><path transform="translate(6,6)" d="M5,0A5,5,0,1,1,-5,0A5,5,0,1,1,5,0" fill="#f58518" stroke="#f58518" stroke-width="1.5" opacity="0.7"/></g><g class="mark-text role-legend-label" pointer-events="none"><text text-anchor="start" transform="translate(16,9)" font-family="sans-serif" font-size="10px" fill="#000" opacity="1">LOCIPARSE</text></g></g><path class="foreground" aria-hidden="true" d="" pointer-events="none" display="none"/></g><g transform="translate(0,32)"><path class="background" aria-hidden="true" d="M0,0h173.76986694335938v12.5h-173.76986694335938Z" pointer-events="none" opacity="1"/><g><g class="mark-symbol role-legend-symbol" pointer-events="none"><path transform="translate(6,6)" d="M5,0A5,5,0,1,1,-5,0A5,5,0,1,1,5,0" fill="#e45756" stroke="#e45756" stroke-width="1.5" opacity="0.7"/></g><g class="mark-text role-legend-label" pointer-events="none"><text text-anchor="start" transform="translate(16,9)" font-family="sans-serif" font-size="10px" fill="#000" opacity="1">LOCIPARSE ARES</text></g></g><path class="foreground" aria-hidden="true" d="" pointer-events="none" display="none"/></g><g transform="translate(0,48)"><path class="background" aria-hidden="true" d="M0,0h173.76986694335938v12.5h-173.76986694335938Z" pointer-events="none" opacity="1"/><g><g class="mark-symbol role-legend-symbol" pointer-events="none"><path transform="translate(6,6)" d="M5,0A5,5,0,1,1,-5,0A5,5,0,1,1,5,0" fill="#72b7b2" stroke="#72b7b2" stroke-width="1.5" opacity="0.7"/></g><g class="mark-text role-legend-label" pointer-events="none"><text text-anchor="start" transform="translate(16,9)" font-family="sans-serif" font-size="10px" fill="#000" opacity="1">LOCIPARSE self-trained</text></g></g><path class="foreground" aria-hidden="true" d="" pointer-events="none" display="none"/></g><g transform="translate(0,64)"><path class="background" aria-hidden="true" d="M0,0h173.76986694335938v12.5h-173.76986694335938Z" pointer-events="none" opacity="1"/><g><g class="mark-symbol role-legend-symbol" pointer-events="none"><path transform="translate(6,6)" d="M5,0A5,5,0,1,1,-5,0A5,5,0,1,1,5,0" fill="#54a24b" stroke="#54a24b" stroke-width="1.5" opacity="0.7"/></g><g class="mark-text role-legend-label" pointer-events="none"><text text-anchor="start" transform="translate(16,9)" font-family="sans-serif" font-size="10px" fill="#000" opacity="1">RNAQuANet contrastive train wi…</text></g></g><path class="foreground" aria-hidden="true" d="" pointer-events="none" display="none"/></g><g transform="translate(0,80)"><path class="background" aria-hidden="true" d="M0,0h173.76986694335938v12.5h-173.76986694335938Z" pointer-events="none" opacity="1"/><g><g class="mark-symbol role-legend-symbol" pointer-events="none"><path transform="translate(6,6)" d="M5,0A5,5,0,1,1,-5,0A5,5,0,1,1,5,0" fill="#eeca3b" stroke="#eeca3b" stroke-width="1.5" opacity="0.7"/></g><g class="mark-text role-legend-label" pointer-events="none"><text text-anchor="start" transform="translate(16,9)" font-family="sans-serif" font-size="10px" fill="#000" opacity="1">RNAQuANet contrastive train, tr…</text></g></g><path class="foreground" aria-hidden="true" d="" pointer-events="none" display="none"/></g><g transform="translate(0,96)"><path class="background" aria-hidden="true" d="M0,0h173.76986694335938v12.5h-173.76986694335938Z" pointer-events="none" opacity="1"/><g><g class="mark-symbol role-legend-symbol" pointer-events="none"><path transform="translate(6,6)" d="M5,0A5,5,0,1,1,-5,0A5,5,0,1,1,5,0" fill="#b279a2" stroke="#b279a2" stroke-width="1.5" opacity="0.7"/></g><g class="mark-text role-legend-label" pointer-events="none"><text text-anchor="start" transform="translate(16,9)" font-family="sans-serif" font-size="10px" fill="#000" opacity="1">RNAQuANet limited features, tr…</text></g></g><path class="foreground" aria-hidden="true" d="" pointer-events="none" display="none"/></g><g transform="translate(0,112)"><path class="background" aria-hidden="true" d="M0,0h173.76986694335938v12.5h-173.76986694335938Z" pointer-events="none" opacity="1"/><g><g class="mark-symbol role-legend-symbol" pointer-events="none"><path transform="translate(6,6)" d="M5,0A5,5,0,1,1,-5,0A5,5,0,1,1,5,0" fill="#ff9da6" stroke="#ff9da6" stroke-width="1.5" opacity="0.7"/></g><g class="mark-text role-legend-label" pointer-events="none"><text text-anchor="start" transform="translate(16,9)" font-family="sans-serif" font-size="10px" fill="#000" opacity="1">RNAQuANet limited features, tr…</text></g></g><path class="foreground" aria-hidden="true" d="" pointer-events="none" display="none"/></g><g transform="translate(0,128)"><path class="background" aria-hidden="true" d="M0,0h173.76986694335938v12.5h-173.76986694335938Z" pointer-events="none" opacity="1"/><g><g class="mark-symbol role-legend-symbol" pointer-events="none"><path transform="translate(6,6)" d="M5,0A5,5,0,1,1,-5,0A5,5,0,1,1,5,0" fill="#9d755d" stroke="#9d755d" stroke-width="1.5" opacity="0.7"/></g><g class="mark-text role-legend-label" pointer-events="none"><text text-anchor="start" transform="translate(16,9)" font-family="sans-serif" font-size="10px" fill="#000" opacity="1">RNAQuANet, trained using LOCI…</text></g></g><path class="foreground" aria-hidden="true" d="" pointer-events="none" display="none"/></g></g></g><path class="foreground" aria-hidden="true" d="" pointer-events="none" display="none"/></g></g><g class="mark-text role-legend-title" pointer-events="none"><text text-anchor="start" transform="translate(0,9)" font-family="sans-serif" font-size="11px" font-weight="bold" fill="#000" opacity="1">group</text></g></g><path class="foreground" aria-hidden="true" d="" pointer-events="none" display="none"/></g></g><g class="mark-group role-title"><g transform="translate(250,-22)"><path class="background" aria-hidden="true" d="M0,0h0v0h0Z" pointer-events="none"/><g><g class="mark-text role-title-text" role="graphics-symbol" aria-roledescription="title" aria-label="Title text 'Group Position Distributions'" pointer-events="none"><text text-anchor="middle" transform="translate(0,10)" font-family="sans-serif" font-size="13px" font-weight="bold" fill="#000" opacity="1">Group Position Distributions</text></g></g><path class="foreground" aria-hidden="true" d="" pointer-events="none" display="none"/></g></g></g><path class="foreground" aria-hidden="true" d="" display="none"/></g></g></g></svg>