<?xml version="1.0" encoding="utf-8" standalone="no"?>
<!DOCTYPE svg PUBLIC "-//W3C//DTD SVG 1.1//EN"
  "http://www.w3.org/Graphics/SVG/1.1/DTD/svg11.dtd">
<svg xmlns:xlink="http://www.w3.org/1999/xlink" width="460.8pt" height="345.6pt" viewBox="0 0 460.8 345.6" xmlns="http://www.w3.org/2000/svg" version="1.1">
 <metadata>
  <rdf:RDF xmlns:dc="http://purl.org/dc/elements/1.1/" xmlns:cc="http://creativecommons.org/ns#" xmlns:rdf="http://www.w3.org/1999/02/22-rdf-syntax-ns#">
   <cc:Work>
    <dc:type rdf:resource="http://purl.org/dc/dcmitype/StillImage"/>
    <dc:date>2025-07-06T23:39:44.928819</dc:date>
    <dc:format>image/svg+xml</dc:format>
    <dc:creator>
     <cc:Agent>
      <dc:title>Matplotlib v3.8.2, https://matplotlib.org/</dc:title>
     </cc:Agent>
    </dc:creator>
   </cc:Work>
  </rdf:RDF>
 </metadata>
 <defs>
  <style type="text/css">*{stroke-linejoin: round; stroke-linecap: butt}</style>
 </defs>
 <g id="figure_1">
  <g id="patch_1">
   <path d="M 0 345.6 
L 460.8 345.6 
L 460.8 0 
L 0 0 
z
" style="fill: #ffffff"/>
  </g>
  <g id="axes_1">
   <g id="patch_2">
    <path d="M 57.6 307.584 
L 414.72 307.584 
L 414.72 41.472 
L 57.6 41.472 
z
" style="fill: #ffffff"/>
   </g>
   <g id="PathCollection_1">
    <defs>
     <path id="mb84a6c5e3b" d="M 0 3 
C 0.795609 3 1.55874 2.683901 2.12132 2.12132 
C 2.683901 1.55874 3 0.795609 3 0 
C 3 -0.795609 2.683901 -1.55874 2.12132 -2.12132 
C 1.55874 -2.683901 0.795609 -3 0 -3 
C -0.795609 -3 -1.55874 -2.683901 -2.12132 -2.12132 
C -2.683901 -1.55874 -3 -0.795609 -3 0 
C -3 0.795609 -2.683901 1.55874 -2.12132 2.12132 
C -1.55874 2.683901 -0.795609 3 0 3 
z
" style="stroke: #1f77b4"/>
    </defs>
    <g clip-path="url(#pef352a6c1f)">
     <use xlink:href="#mb84a6c5e3b" x="398.487273" y="164.613246" style="fill: #1f77b4; stroke: #1f77b4"/>
     <use xlink:href="#mb84a6c5e3b" x="393.165067" y="148.749639" style="fill: #1f77b4; stroke: #1f77b4"/>
     <use xlink:href="#mb84a6c5e3b" x="387.842861" y="172.545049" style="fill: #1f77b4; stroke: #1f77b4"/>
     <use xlink:href="#mb84a6c5e3b" x="382.520656" y="132.886033" style="fill: #1f77b4; stroke: #1f77b4"/>
     <use xlink:href="#mb84a6c5e3b" x="377.19845" y="160.647344" style="fill: #1f77b4; stroke: #1f77b4"/>
     <use xlink:href="#mb84a6c5e3b" x="366.554039" y="124.95423" style="fill: #1f77b4; stroke: #1f77b4"/>
     <use xlink:href="#mb84a6c5e3b" x="371.876244" y="208.238164" style="fill: #1f77b4; stroke: #1f77b4"/>
     <use xlink:href="#mb84a6c5e3b" x="355.909627" y="180.476852" style="fill: #1f77b4; stroke: #1f77b4"/>
     <use xlink:href="#mb84a6c5e3b" x="361.231833" y="200.306361" style="fill: #1f77b4; stroke: #1f77b4"/>
     <use xlink:href="#mb84a6c5e3b" x="350.587422" y="152.715541" style="fill: #1f77b4; stroke: #1f77b4"/>
     <use xlink:href="#mb84a6c5e3b" x="345.265216" y="192.374557" style="fill: #1f77b4; stroke: #1f77b4"/>
     <use xlink:href="#mb84a6c5e3b" x="339.94301" y="53.568" style="fill: #1f77b4; stroke: #1f77b4"/>
     <use xlink:href="#mb84a6c5e3b" x="334.620805" y="168.579148" style="fill: #1f77b4; stroke: #1f77b4"/>
     <use xlink:href="#mb84a6c5e3b" x="329.298599" y="89.261115" style="fill: #1f77b4; stroke: #1f77b4"/>
     <use xlink:href="#mb84a6c5e3b" x="323.976393" y="61.499803" style="fill: #1f77b4; stroke: #1f77b4"/>
     <use xlink:href="#mb84a6c5e3b" x="318.654188" y="220.135869" style="fill: #1f77b4; stroke: #1f77b4"/>
     <use xlink:href="#mb84a6c5e3b" x="313.331982" y="263.760787" style="fill: #1f77b4; stroke: #1f77b4"/>
     <use xlink:href="#mb84a6c5e3b" x="308.009776" y="287.556197" style="fill: #1f77b4; stroke: #1f77b4"/>
     <use xlink:href="#mb84a6c5e3b" x="302.687571" y="228.067672" style="fill: #1f77b4; stroke: #1f77b4"/>
     <use xlink:href="#mb84a6c5e3b" x="297.365365" y="57.533902" style="fill: #1f77b4; stroke: #1f77b4"/>
     <use xlink:href="#mb84a6c5e3b" x="292.043159" y="69.431607" style="fill: #1f77b4; stroke: #1f77b4"/>
     <use xlink:href="#mb84a6c5e3b" x="286.720954" y="77.36341" style="fill: #1f77b4; stroke: #1f77b4"/>
     <use xlink:href="#mb84a6c5e3b" x="281.398748" y="73.397508" style="fill: #1f77b4; stroke: #1f77b4"/>
     <use xlink:href="#mb84a6c5e3b" x="276.076542" y="93.227016" style="fill: #1f77b4; stroke: #1f77b4"/>
     <use xlink:href="#mb84a6c5e3b" x="270.754337" y="144.783738" style="fill: #1f77b4; stroke: #1f77b4"/>
     <use xlink:href="#mb84a6c5e3b" x="265.432131" y="140.817836" style="fill: #1f77b4; stroke: #1f77b4"/>
     <use xlink:href="#mb84a6c5e3b" x="260.109925" y="97.192918" style="fill: #1f77b4; stroke: #1f77b4"/>
     <use xlink:href="#mb84a6c5e3b" x="254.78772" y="113.056525" style="fill: #1f77b4; stroke: #1f77b4"/>
     <use xlink:href="#mb84a6c5e3b" x="249.465514" y="283.590295" style="fill: #1f77b4; stroke: #1f77b4"/>
     <use xlink:href="#mb84a6c5e3b" x="244.143308" y="232.033574" style="fill: #1f77b4; stroke: #1f77b4"/>
     <use xlink:href="#mb84a6c5e3b" x="238.821103" y="156.681443" style="fill: #1f77b4; stroke: #1f77b4"/>
     <use xlink:href="#mb84a6c5e3b" x="233.498897" y="267.726689" style="fill: #1f77b4; stroke: #1f77b4"/>
     <use xlink:href="#mb84a6c5e3b" x="228.176692" y="204.272262" style="fill: #1f77b4; stroke: #1f77b4"/>
     <use xlink:href="#mb84a6c5e3b" x="222.854486" y="251.863082" style="fill: #1f77b4; stroke: #1f77b4"/>
     <use xlink:href="#mb84a6c5e3b" x="217.53228" y="212.204066" style="fill: #1f77b4; stroke: #1f77b4"/>
     <use xlink:href="#mb84a6c5e3b" x="212.210075" y="117.022426" style="fill: #1f77b4; stroke: #1f77b4"/>
     <use xlink:href="#mb84a6c5e3b" x="206.887869" y="109.090623" style="fill: #1f77b4; stroke: #1f77b4"/>
     <use xlink:href="#mb84a6c5e3b" x="201.565663" y="255.828984" style="fill: #1f77b4; stroke: #1f77b4"/>
     <use xlink:href="#mb84a6c5e3b" x="196.243458" y="105.124721" style="fill: #1f77b4; stroke: #1f77b4"/>
     <use xlink:href="#mb84a6c5e3b" x="190.921252" y="65.465705" style="fill: #1f77b4; stroke: #1f77b4"/>
     <use xlink:href="#mb84a6c5e3b" x="185.599046" y="81.329311" style="fill: #1f77b4; stroke: #1f77b4"/>
     <use xlink:href="#mb84a6c5e3b" x="180.276841" y="85.295213" style="fill: #1f77b4; stroke: #1f77b4"/>
     <use xlink:href="#mb84a6c5e3b" x="174.954635" y="216.169967" style="fill: #1f77b4; stroke: #1f77b4"/>
     <use xlink:href="#mb84a6c5e3b" x="169.632429" y="184.442754" style="fill: #1f77b4; stroke: #1f77b4"/>
     <use xlink:href="#mb84a6c5e3b" x="164.310224" y="224.10177" style="fill: #1f77b4; stroke: #1f77b4"/>
     <use xlink:href="#mb84a6c5e3b" x="158.988018" y="259.794885" style="fill: #1f77b4; stroke: #1f77b4"/>
     <use xlink:href="#mb84a6c5e3b" x="153.665812" y="239.965377" style="fill: #1f77b4; stroke: #1f77b4"/>
     <use xlink:href="#mb84a6c5e3b" x="148.343607" y="275.658492" style="fill: #1f77b4; stroke: #1f77b4"/>
     <use xlink:href="#mb84a6c5e3b" x="143.021401" y="196.340459" style="fill: #1f77b4; stroke: #1f77b4"/>
     <use xlink:href="#mb84a6c5e3b" x="137.699195" y="295.488" style="fill: #1f77b4; stroke: #1f77b4"/>
     <use xlink:href="#mb84a6c5e3b" x="132.37699" y="101.15882" style="fill: #1f77b4; stroke: #1f77b4"/>
     <use xlink:href="#mb84a6c5e3b" x="127.054784" y="136.851934" style="fill: #1f77b4; stroke: #1f77b4"/>
     <use xlink:href="#mb84a6c5e3b" x="121.732578" y="279.624393" style="fill: #1f77b4; stroke: #1f77b4"/>
     <use xlink:href="#mb84a6c5e3b" x="116.410373" y="188.408656" style="fill: #1f77b4; stroke: #1f77b4"/>
     <use xlink:href="#mb84a6c5e3b" x="111.088167" y="120.988328" style="fill: #1f77b4; stroke: #1f77b4"/>
     <use xlink:href="#mb84a6c5e3b" x="105.765961" y="176.510951" style="fill: #1f77b4; stroke: #1f77b4"/>
     <use xlink:href="#mb84a6c5e3b" x="100.443756" y="243.931279" style="fill: #1f77b4; stroke: #1f77b4"/>
     <use xlink:href="#mb84a6c5e3b" x="95.12155" y="247.89718" style="fill: #1f77b4; stroke: #1f77b4"/>
     <use xlink:href="#mb84a6c5e3b" x="89.799344" y="128.920131" style="fill: #1f77b4; stroke: #1f77b4"/>
     <use xlink:href="#mb84a6c5e3b" x="84.477139" y="271.69259" style="fill: #1f77b4; stroke: #1f77b4"/>
     <use xlink:href="#mb84a6c5e3b" x="79.154933" y="235.999475" style="fill: #1f77b4; stroke: #1f77b4"/>
     <use xlink:href="#mb84a6c5e3b" x="73.832727" y="291.522098" style="fill: #1f77b4; stroke: #1f77b4"/>
    </g>
   </g>
   <g id="matplotlib.axis_1">
    <g id="xtick_1">
     <g id="line2d_1">
      <defs>
       <path id="m34463ab5a1" d="M 0 0 
L 0 3.5 
" style="stroke: #000000; stroke-width: 0.8"/>
      </defs>
      <g>
       <use xlink:href="#m34463ab5a1" x="73.832727" y="307.584" style="stroke: #000000; stroke-width: 0.8"/>
      </g>
     </g>
     <g id="text_1">
      <!-- 0 -->
      <g transform="translate(70.651477 322.182437) scale(0.1 -0.1)">
       <defs>
        <path id="DejaVuSans-30" d="M 2034 4250 
Q 1547 4250 1301 3770 
Q 1056 3291 1056 2328 
Q 1056 1369 1301 889 
Q 1547 409 2034 409 
Q 2525 409 2770 889 
Q 3016 1369 3016 2328 
Q 3016 3291 2770 3770 
Q 2525 4250 2034 4250 
z
M 2034 4750 
Q 2819 4750 3233 4129 
Q 3647 3509 3647 2328 
Q 3647 1150 3233 529 
Q 2819 -91 2034 -91 
Q 1250 -91 836 529 
Q 422 1150 422 2328 
Q 422 3509 836 4129 
Q 1250 4750 2034 4750 
z
" transform="scale(0.015625)"/>
       </defs>
       <use xlink:href="#DejaVuSans-30"/>
      </g>
     </g>
    </g>
    <g id="xtick_2">
     <g id="line2d_2">
      <g>
       <use xlink:href="#m34463ab5a1" x="127.054784" y="307.584" style="stroke: #000000; stroke-width: 0.8"/>
      </g>
     </g>
     <g id="text_2">
      <!-- 10 -->
      <g transform="translate(120.692284 322.182437) scale(0.1 -0.1)">
       <defs>
        <path id="DejaVuSans-31" d="M 794 531 
L 1825 531 
L 1825 4091 
L 703 3866 
L 703 4441 
L 1819 4666 
L 2450 4666 
L 2450 531 
L 3481 531 
L 3481 0 
L 794 0 
L 794 531 
z
" transform="scale(0.015625)"/>
       </defs>
       <use xlink:href="#DejaVuSans-31"/>
       <use xlink:href="#DejaVuSans-30" x="63.623047"/>
      </g>
     </g>
    </g>
    <g id="xtick_3">
     <g id="line2d_3">
      <g>
       <use xlink:href="#m34463ab5a1" x="180.276841" y="307.584" style="stroke: #000000; stroke-width: 0.8"/>
      </g>
     </g>
     <g id="text_3">
      <!-- 20 -->
      <g transform="translate(173.914341 322.182437) scale(0.1 -0.1)">
       <defs>
        <path id="DejaVuSans-32" d="M 1228 531 
L 3431 531 
L 3431 0 
L 469 0 
L 469 531 
Q 828 903 1448 1529 
Q 2069 2156 2228 2338 
Q 2531 2678 2651 2914 
Q 2772 3150 2772 3378 
Q 2772 3750 2511 3984 
Q 2250 4219 1831 4219 
Q 1534 4219 1204 4116 
Q 875 4013 500 3803 
L 500 4441 
Q 881 4594 1212 4672 
Q 1544 4750 1819 4750 
Q 2544 4750 2975 4387 
Q 3406 4025 3406 3419 
Q 3406 3131 3298 2873 
Q 3191 2616 2906 2266 
Q 2828 2175 2409 1742 
Q 1991 1309 1228 531 
z
" transform="scale(0.015625)"/>
       </defs>
       <use xlink:href="#DejaVuSans-32"/>
       <use xlink:href="#DejaVuSans-30" x="63.623047"/>
      </g>
     </g>
    </g>
    <g id="xtick_4">
     <g id="line2d_4">
      <g>
       <use xlink:href="#m34463ab5a1" x="233.498897" y="307.584" style="stroke: #000000; stroke-width: 0.8"/>
      </g>
     </g>
     <g id="text_4">
      <!-- 30 -->
      <g transform="translate(227.136397 322.182437) scale(0.1 -0.1)">
       <defs>
        <path id="DejaVuSans-33" d="M 2597 2516 
Q 3050 2419 3304 2112 
Q 3559 1806 3559 1356 
Q 3559 666 3084 287 
Q 2609 -91 1734 -91 
Q 1441 -91 1130 -33 
Q 819 25 488 141 
L 488 750 
Q 750 597 1062 519 
Q 1375 441 1716 441 
Q 2309 441 2620 675 
Q 2931 909 2931 1356 
Q 2931 1769 2642 2001 
Q 2353 2234 1838 2234 
L 1294 2234 
L 1294 2753 
L 1863 2753 
Q 2328 2753 2575 2939 
Q 2822 3125 2822 3475 
Q 2822 3834 2567 4026 
Q 2313 4219 1838 4219 
Q 1578 4219 1281 4162 
Q 984 4106 628 3988 
L 628 4550 
Q 988 4650 1302 4700 
Q 1616 4750 1894 4750 
Q 2613 4750 3031 4423 
Q 3450 4097 3450 3541 
Q 3450 3153 3228 2886 
Q 3006 2619 2597 2516 
z
" transform="scale(0.015625)"/>
       </defs>
       <use xlink:href="#DejaVuSans-33"/>
       <use xlink:href="#DejaVuSans-30" x="63.623047"/>
      </g>
     </g>
    </g>
    <g id="xtick_5">
     <g id="line2d_5">
      <g>
       <use xlink:href="#m34463ab5a1" x="286.720954" y="307.584" style="stroke: #000000; stroke-width: 0.8"/>
      </g>
     </g>
     <g id="text_5">
      <!-- 40 -->
      <g transform="translate(280.358454 322.182437) scale(0.1 -0.1)">
       <defs>
        <path id="DejaVuSans-34" d="M 2419 4116 
L 825 1625 
L 2419 1625 
L 2419 4116 
z
M 2253 4666 
L 3047 4666 
L 3047 1625 
L 3713 1625 
L 3713 1100 
L 3047 1100 
L 3047 0 
L 2419 0 
L 2419 1100 
L 313 1100 
L 313 1709 
L 2253 4666 
z
" transform="scale(0.015625)"/>
       </defs>
       <use xlink:href="#DejaVuSans-34"/>
       <use xlink:href="#DejaVuSans-30" x="63.623047"/>
      </g>
     </g>
    </g>
    <g id="xtick_6">
     <g id="line2d_6">
      <g>
       <use xlink:href="#m34463ab5a1" x="339.94301" y="307.584" style="stroke: #000000; stroke-width: 0.8"/>
      </g>
     </g>
     <g id="text_6">
      <!-- 50 -->
      <g transform="translate(333.58051 322.182437) scale(0.1 -0.1)">
       <defs>
        <path id="DejaVuSans-35" d="M 691 4666 
L 3169 4666 
L 3169 4134 
L 1269 4134 
L 1269 2991 
Q 1406 3038 1543 3061 
Q 1681 3084 1819 3084 
Q 2600 3084 3056 2656 
Q 3513 2228 3513 1497 
Q 3513 744 3044 326 
Q 2575 -91 1722 -91 
Q 1428 -91 1123 -41 
Q 819 9 494 109 
L 494 744 
Q 775 591 1075 516 
Q 1375 441 1709 441 
Q 2250 441 2565 725 
Q 2881 1009 2881 1497 
Q 2881 1984 2565 2268 
Q 2250 2553 1709 2553 
Q 1456 2553 1204 2497 
Q 953 2441 691 2322 
L 691 4666 
z
" transform="scale(0.015625)"/>
       </defs>
       <use xlink:href="#DejaVuSans-35"/>
       <use xlink:href="#DejaVuSans-30" x="63.623047"/>
      </g>
     </g>
    </g>
    <g id="xtick_7">
     <g id="line2d_7">
      <g>
       <use xlink:href="#m34463ab5a1" x="393.165067" y="307.584" style="stroke: #000000; stroke-width: 0.8"/>
      </g>
     </g>
     <g id="text_7">
      <!-- 60 -->
      <g transform="translate(386.802567 322.182437) scale(0.1 -0.1)">
       <defs>
        <path id="DejaVuSans-36" d="M 2113 2584 
Q 1688 2584 1439 2293 
Q 1191 2003 1191 1497 
Q 1191 994 1439 701 
Q 1688 409 2113 409 
Q 2538 409 2786 701 
Q 3034 994 3034 1497 
Q 3034 2003 2786 2293 
Q 2538 2584 2113 2584 
z
M 3366 4563 
L 3366 3988 
Q 3128 4100 2886 4159 
Q 2644 4219 2406 4219 
Q 1781 4219 1451 3797 
Q 1122 3375 1075 2522 
Q 1259 2794 1537 2939 
Q 1816 3084 2150 3084 
Q 2853 3084 3261 2657 
Q 3669 2231 3669 1497 
Q 3669 778 3244 343 
Q 2819 -91 2113 -91 
Q 1303 -91 875 529 
Q 447 1150 447 2328 
Q 447 3434 972 4092 
Q 1497 4750 2381 4750 
Q 2619 4750 2861 4703 
Q 3103 4656 3366 4563 
z
" transform="scale(0.015625)"/>
       </defs>
       <use xlink:href="#DejaVuSans-36"/>
       <use xlink:href="#DejaVuSans-30" x="63.623047"/>
      </g>
     </g>
    </g>
   </g>
   <g id="matplotlib.axis_2">
    <g id="ytick_1">
     <g id="line2d_8">
      <defs>
       <path id="m44f56645de" d="M 0 0 
L -3.5 0 
" style="stroke: #000000; stroke-width: 0.8"/>
      </defs>
      <g>
       <use xlink:href="#m44f56645de" x="57.6" y="295.488" style="stroke: #000000; stroke-width: 0.8"/>
      </g>
     </g>
     <g id="text_8">
      <!-- 0 -->
      <g transform="translate(44.2375 299.287219) scale(0.1 -0.1)">
       <use xlink:href="#DejaVuSans-30"/>
      </g>
     </g>
    </g>
    <g id="ytick_2">
     <g id="line2d_9">
      <g>
       <use xlink:href="#m44f56645de" x="57.6" y="255.828984" style="stroke: #000000; stroke-width: 0.8"/>
      </g>
     </g>
     <g id="text_9">
      <!-- 10 -->
      <g transform="translate(37.875 259.628202) scale(0.1 -0.1)">
       <use xlink:href="#DejaVuSans-31"/>
       <use xlink:href="#DejaVuSans-30" x="63.623047"/>
      </g>
     </g>
    </g>
    <g id="ytick_3">
     <g id="line2d_10">
      <g>
       <use xlink:href="#m44f56645de" x="57.6" y="216.169967" style="stroke: #000000; stroke-width: 0.8"/>
      </g>
     </g>
     <g id="text_10">
      <!-- 20 -->
      <g transform="translate(37.875 219.969186) scale(0.1 -0.1)">
       <use xlink:href="#DejaVuSans-32"/>
       <use xlink:href="#DejaVuSans-30" x="63.623047"/>
      </g>
     </g>
    </g>
    <g id="ytick_4">
     <g id="line2d_11">
      <g>
       <use xlink:href="#m44f56645de" x="57.6" y="176.510951" style="stroke: #000000; stroke-width: 0.8"/>
      </g>
     </g>
     <g id="text_11">
      <!-- 30 -->
      <g transform="translate(37.875 180.31017) scale(0.1 -0.1)">
       <use xlink:href="#DejaVuSans-33"/>
       <use xlink:href="#DejaVuSans-30" x="63.623047"/>
      </g>
     </g>
    </g>
    <g id="ytick_5">
     <g id="line2d_12">
      <g>
       <use xlink:href="#m44f56645de" x="57.6" y="136.851934" style="stroke: #000000; stroke-width: 0.8"/>
      </g>
     </g>
     <g id="text_12">
      <!-- 40 -->
      <g transform="translate(37.875 140.651153) scale(0.1 -0.1)">
       <use xlink:href="#DejaVuSans-34"/>
       <use xlink:href="#DejaVuSans-30" x="63.623047"/>
      </g>
     </g>
    </g>
    <g id="ytick_6">
     <g id="line2d_13">
      <g>
       <use xlink:href="#m44f56645de" x="57.6" y="97.192918" style="stroke: #000000; stroke-width: 0.8"/>
      </g>
     </g>
     <g id="text_13">
      <!-- 50 -->
      <g transform="translate(37.875 100.992137) scale(0.1 -0.1)">
       <use xlink:href="#DejaVuSans-35"/>
       <use xlink:href="#DejaVuSans-30" x="63.623047"/>
      </g>
     </g>
    </g>
    <g id="ytick_7">
     <g id="line2d_14">
      <g>
       <use xlink:href="#m44f56645de" x="57.6" y="57.533902" style="stroke: #000000; stroke-width: 0.8"/>
      </g>
     </g>
     <g id="text_14">
      <!-- 60 -->
      <g transform="translate(37.875 61.33312) scale(0.1 -0.1)">
       <use xlink:href="#DejaVuSans-36"/>
       <use xlink:href="#DejaVuSans-30" x="63.623047"/>
      </g>
     </g>
    </g>
   </g>
   <g id="line2d_15">
    <path d="M 73.832727 295.488 
L 79.154933 291.522098 
L 84.477139 287.556197 
L 89.799344 283.590295 
L 95.12155 279.624393 
L 100.443756 275.658492 
L 105.765961 271.69259 
L 111.088167 267.726689 
L 116.410373 263.760787 
L 121.732578 259.794885 
L 127.054784 255.828984 
L 132.37699 251.863082 
L 137.699195 247.89718 
L 143.021401 243.931279 
L 148.343607 239.965377 
L 153.665812 235.999475 
L 158.988018 232.033574 
L 164.310224 228.067672 
L 169.632429 224.10177 
L 174.954635 220.135869 
L 180.276841 216.169967 
L 185.599046 212.204066 
L 190.921252 208.238164 
L 196.243458 204.272262 
L 201.565663 200.306361 
L 206.887869 196.340459 
L 212.210075 192.374557 
L 217.53228 188.408656 
L 222.854486 184.442754 
L 228.176692 180.476852 
L 233.498897 176.510951 
L 238.821103 172.545049 
L 244.143308 168.579148 
L 249.465514 164.613246 
L 254.78772 160.647344 
L 260.109925 156.681443 
L 265.432131 152.715541 
L 270.754337 148.749639 
L 276.076542 144.783738 
L 281.398748 140.817836 
L 286.720954 136.851934 
L 292.043159 132.886033 
L 297.365365 128.920131 
L 302.687571 124.95423 
L 308.009776 120.988328 
L 313.331982 117.022426 
L 318.654188 113.056525 
L 323.976393 109.090623 
L 329.298599 105.124721 
L 334.620805 101.15882 
L 339.94301 97.192918 
L 345.265216 93.227016 
L 350.587422 89.261115 
L 355.909627 85.295213 
L 361.231833 81.329311 
L 366.554039 77.36341 
L 371.876244 73.397508 
L 377.19845 69.431607 
L 382.520656 65.465705 
L 387.842861 61.499803 
L 393.165067 57.533902 
L 398.487273 53.568 
" clip-path="url(#pef352a6c1f)" style="fill: none; stroke: #ff0000; stroke-width: 1.5; stroke-linecap: square"/>
   </g>
   <g id="patch_3">
    <path d="M 57.6 307.584 
L 57.6 41.472 
" style="fill: none; stroke: #000000; stroke-width: 0.8; stroke-linejoin: miter; stroke-linecap: square"/>
   </g>
   <g id="patch_4">
    <path d="M 414.72 307.584 
L 414.72 41.472 
" style="fill: none; stroke: #000000; stroke-width: 0.8; stroke-linejoin: miter; stroke-linecap: square"/>
   </g>
   <g id="patch_5">
    <path d="M 57.6 307.584 
L 414.72 307.584 
" style="fill: none; stroke: #000000; stroke-width: 0.8; stroke-linejoin: miter; stroke-linecap: square"/>
   </g>
   <g id="patch_6">
    <path d="M 57.6 41.472 
L 414.72 41.472 
" style="fill: none; stroke: #000000; stroke-width: 0.8; stroke-linejoin: miter; stroke-linecap: square"/>
   </g>
   <g id="text_15">
    <!-- Spearman correlation coefficient [PUZZLE 18] [Lociparse less features, contrastive loss]: 0.31 -->
    <g transform="translate(-44.969062 35.472) scale(0.12 -0.12)">
     <defs>
      <path id="DejaVuSans-53" d="M 3425 4513 
L 3425 3897 
Q 3066 4069 2747 4153 
Q 2428 4238 2131 4238 
Q 1616 4238 1336 4038 
Q 1056 3838 1056 3469 
Q 1056 3159 1242 3001 
Q 1428 2844 1947 2747 
L 2328 2669 
Q 3034 2534 3370 2195 
Q 3706 1856 3706 1288 
Q 3706 609 3251 259 
Q 2797 -91 1919 -91 
Q 1588 -91 1214 -16 
Q 841 59 441 206 
L 441 856 
Q 825 641 1194 531 
Q 1563 422 1919 422 
Q 2459 422 2753 634 
Q 3047 847 3047 1241 
Q 3047 1584 2836 1778 
Q 2625 1972 2144 2069 
L 1759 2144 
Q 1053 2284 737 2584 
Q 422 2884 422 3419 
Q 422 4038 858 4394 
Q 1294 4750 2059 4750 
Q 2388 4750 2728 4690 
Q 3069 4631 3425 4513 
z
" transform="scale(0.015625)"/>
      <path id="DejaVuSans-70" d="M 1159 525 
L 1159 -1331 
L 581 -1331 
L 581 3500 
L 1159 3500 
L 1159 2969 
Q 1341 3281 1617 3432 
Q 1894 3584 2278 3584 
Q 2916 3584 3314 3078 
Q 3713 2572 3713 1747 
Q 3713 922 3314 415 
Q 2916 -91 2278 -91 
Q 1894 -91 1617 61 
Q 1341 213 1159 525 
z
M 3116 1747 
Q 3116 2381 2855 2742 
Q 2594 3103 2138 3103 
Q 1681 3103 1420 2742 
Q 1159 2381 1159 1747 
Q 1159 1113 1420 752 
Q 1681 391 2138 391 
Q 2594 391 2855 752 
Q 3116 1113 3116 1747 
z
" transform="scale(0.015625)"/>
      <path id="DejaVuSans-65" d="M 3597 1894 
L 3597 1613 
L 953 1613 
Q 991 1019 1311 708 
Q 1631 397 2203 397 
Q 2534 397 2845 478 
Q 3156 559 3463 722 
L 3463 178 
Q 3153 47 2828 -22 
Q 2503 -91 2169 -91 
Q 1331 -91 842 396 
Q 353 884 353 1716 
Q 353 2575 817 3079 
Q 1281 3584 2069 3584 
Q 2775 3584 3186 3129 
Q 3597 2675 3597 1894 
z
M 3022 2063 
Q 3016 2534 2758 2815 
Q 2500 3097 2075 3097 
Q 1594 3097 1305 2825 
Q 1016 2553 972 2059 
L 3022 2063 
z
" transform="scale(0.015625)"/>
      <path id="DejaVuSans-61" d="M 2194 1759 
Q 1497 1759 1228 1600 
Q 959 1441 959 1056 
Q 959 750 1161 570 
Q 1363 391 1709 391 
Q 2188 391 2477 730 
Q 2766 1069 2766 1631 
L 2766 1759 
L 2194 1759 
z
M 3341 1997 
L 3341 0 
L 2766 0 
L 2766 531 
Q 2569 213 2275 61 
Q 1981 -91 1556 -91 
Q 1019 -91 701 211 
Q 384 513 384 1019 
Q 384 1609 779 1909 
Q 1175 2209 1959 2209 
L 2766 2209 
L 2766 2266 
Q 2766 2663 2505 2880 
Q 2244 3097 1772 3097 
Q 1472 3097 1187 3025 
Q 903 2953 641 2809 
L 641 3341 
Q 956 3463 1253 3523 
Q 1550 3584 1831 3584 
Q 2591 3584 2966 3190 
Q 3341 2797 3341 1997 
z
" transform="scale(0.015625)"/>
      <path id="DejaVuSans-72" d="M 2631 2963 
Q 2534 3019 2420 3045 
Q 2306 3072 2169 3072 
Q 1681 3072 1420 2755 
Q 1159 2438 1159 1844 
L 1159 0 
L 581 0 
L 581 3500 
L 1159 3500 
L 1159 2956 
Q 1341 3275 1631 3429 
Q 1922 3584 2338 3584 
Q 2397 3584 2469 3576 
Q 2541 3569 2628 3553 
L 2631 2963 
z
" transform="scale(0.015625)"/>
      <path id="DejaVuSans-6d" d="M 3328 2828 
Q 3544 3216 3844 3400 
Q 4144 3584 4550 3584 
Q 5097 3584 5394 3201 
Q 5691 2819 5691 2113 
L 5691 0 
L 5113 0 
L 5113 2094 
Q 5113 2597 4934 2840 
Q 4756 3084 4391 3084 
Q 3944 3084 3684 2787 
Q 3425 2491 3425 1978 
L 3425 0 
L 2847 0 
L 2847 2094 
Q 2847 2600 2669 2842 
Q 2491 3084 2119 3084 
Q 1678 3084 1418 2786 
Q 1159 2488 1159 1978 
L 1159 0 
L 581 0 
L 581 3500 
L 1159 3500 
L 1159 2956 
Q 1356 3278 1631 3431 
Q 1906 3584 2284 3584 
Q 2666 3584 2933 3390 
Q 3200 3197 3328 2828 
z
" transform="scale(0.015625)"/>
      <path id="DejaVuSans-6e" d="M 3513 2113 
L 3513 0 
L 2938 0 
L 2938 2094 
Q 2938 2591 2744 2837 
Q 2550 3084 2163 3084 
Q 1697 3084 1428 2787 
Q 1159 2491 1159 1978 
L 1159 0 
L 581 0 
L 581 3500 
L 1159 3500 
L 1159 2956 
Q 1366 3272 1645 3428 
Q 1925 3584 2291 3584 
Q 2894 3584 3203 3211 
Q 3513 2838 3513 2113 
z
" transform="scale(0.015625)"/>
      <path id="DejaVuSans-20" transform="scale(0.015625)"/>
      <path id="DejaVuSans-63" d="M 3122 3366 
L 3122 2828 
Q 2878 2963 2633 3030 
Q 2388 3097 2138 3097 
Q 1578 3097 1268 2742 
Q 959 2388 959 1747 
Q 959 1106 1268 751 
Q 1578 397 2138 397 
Q 2388 397 2633 464 
Q 2878 531 3122 666 
L 3122 134 
Q 2881 22 2623 -34 
Q 2366 -91 2075 -91 
Q 1284 -91 818 406 
Q 353 903 353 1747 
Q 353 2603 823 3093 
Q 1294 3584 2113 3584 
Q 2378 3584 2631 3529 
Q 2884 3475 3122 3366 
z
" transform="scale(0.015625)"/>
      <path id="DejaVuSans-6f" d="M 1959 3097 
Q 1497 3097 1228 2736 
Q 959 2375 959 1747 
Q 959 1119 1226 758 
Q 1494 397 1959 397 
Q 2419 397 2687 759 
Q 2956 1122 2956 1747 
Q 2956 2369 2687 2733 
Q 2419 3097 1959 3097 
z
M 1959 3584 
Q 2709 3584 3137 3096 
Q 3566 2609 3566 1747 
Q 3566 888 3137 398 
Q 2709 -91 1959 -91 
Q 1206 -91 779 398 
Q 353 888 353 1747 
Q 353 2609 779 3096 
Q 1206 3584 1959 3584 
z
" transform="scale(0.015625)"/>
      <path id="DejaVuSans-6c" d="M 603 4863 
L 1178 4863 
L 1178 0 
L 603 0 
L 603 4863 
z
" transform="scale(0.015625)"/>
      <path id="DejaVuSans-74" d="M 1172 4494 
L 1172 3500 
L 2356 3500 
L 2356 3053 
L 1172 3053 
L 1172 1153 
Q 1172 725 1289 603 
Q 1406 481 1766 481 
L 2356 481 
L 2356 0 
L 1766 0 
Q 1100 0 847 248 
Q 594 497 594 1153 
L 594 3053 
L 172 3053 
L 172 3500 
L 594 3500 
L 594 4494 
L 1172 4494 
z
" transform="scale(0.015625)"/>
      <path id="DejaVuSans-69" d="M 603 3500 
L 1178 3500 
L 1178 0 
L 603 0 
L 603 3500 
z
M 603 4863 
L 1178 4863 
L 1178 4134 
L 603 4134 
L 603 4863 
z
" transform="scale(0.015625)"/>
      <path id="DejaVuSans-66" d="M 2375 4863 
L 2375 4384 
L 1825 4384 
Q 1516 4384 1395 4259 
Q 1275 4134 1275 3809 
L 1275 3500 
L 2222 3500 
L 2222 3053 
L 1275 3053 
L 1275 0 
L 697 0 
L 697 3053 
L 147 3053 
L 147 3500 
L 697 3500 
L 697 3744 
Q 697 4328 969 4595 
Q 1241 4863 1831 4863 
L 2375 4863 
z
" transform="scale(0.015625)"/>
      <path id="DejaVuSans-5b" d="M 550 4863 
L 1875 4863 
L 1875 4416 
L 1125 4416 
L 1125 -397 
L 1875 -397 
L 1875 -844 
L 550 -844 
L 550 4863 
z
" transform="scale(0.015625)"/>
      <path id="DejaVuSans-50" d="M 1259 4147 
L 1259 2394 
L 2053 2394 
Q 2494 2394 2734 2622 
Q 2975 2850 2975 3272 
Q 2975 3691 2734 3919 
Q 2494 4147 2053 4147 
L 1259 4147 
z
M 628 4666 
L 2053 4666 
Q 2838 4666 3239 4311 
Q 3641 3956 3641 3272 
Q 3641 2581 3239 2228 
Q 2838 1875 2053 1875 
L 1259 1875 
L 1259 0 
L 628 0 
L 628 4666 
z
" transform="scale(0.015625)"/>
      <path id="DejaVuSans-55" d="M 556 4666 
L 1191 4666 
L 1191 1831 
Q 1191 1081 1462 751 
Q 1734 422 2344 422 
Q 2950 422 3222 751 
Q 3494 1081 3494 1831 
L 3494 4666 
L 4128 4666 
L 4128 1753 
Q 4128 841 3676 375 
Q 3225 -91 2344 -91 
Q 1459 -91 1007 375 
Q 556 841 556 1753 
L 556 4666 
z
" transform="scale(0.015625)"/>
      <path id="DejaVuSans-5a" d="M 359 4666 
L 4025 4666 
L 4025 4184 
L 1075 531 
L 4097 531 
L 4097 0 
L 288 0 
L 288 481 
L 3238 4134 
L 359 4134 
L 359 4666 
z
" transform="scale(0.015625)"/>
      <path id="DejaVuSans-4c" d="M 628 4666 
L 1259 4666 
L 1259 531 
L 3531 531 
L 3531 0 
L 628 0 
L 628 4666 
z
" transform="scale(0.015625)"/>
      <path id="DejaVuSans-45" d="M 628 4666 
L 3578 4666 
L 3578 4134 
L 1259 4134 
L 1259 2753 
L 3481 2753 
L 3481 2222 
L 1259 2222 
L 1259 531 
L 3634 531 
L 3634 0 
L 628 0 
L 628 4666 
z
" transform="scale(0.015625)"/>
      <path id="DejaVuSans-38" d="M 2034 2216 
Q 1584 2216 1326 1975 
Q 1069 1734 1069 1313 
Q 1069 891 1326 650 
Q 1584 409 2034 409 
Q 2484 409 2743 651 
Q 3003 894 3003 1313 
Q 3003 1734 2745 1975 
Q 2488 2216 2034 2216 
z
M 1403 2484 
Q 997 2584 770 2862 
Q 544 3141 544 3541 
Q 544 4100 942 4425 
Q 1341 4750 2034 4750 
Q 2731 4750 3128 4425 
Q 3525 4100 3525 3541 
Q 3525 3141 3298 2862 
Q 3072 2584 2669 2484 
Q 3125 2378 3379 2068 
Q 3634 1759 3634 1313 
Q 3634 634 3220 271 
Q 2806 -91 2034 -91 
Q 1263 -91 848 271 
Q 434 634 434 1313 
Q 434 1759 690 2068 
Q 947 2378 1403 2484 
z
M 1172 3481 
Q 1172 3119 1398 2916 
Q 1625 2713 2034 2713 
Q 2441 2713 2670 2916 
Q 2900 3119 2900 3481 
Q 2900 3844 2670 4047 
Q 2441 4250 2034 4250 
Q 1625 4250 1398 4047 
Q 1172 3844 1172 3481 
z
" transform="scale(0.015625)"/>
      <path id="DejaVuSans-5d" d="M 1947 4863 
L 1947 -844 
L 622 -844 
L 622 -397 
L 1369 -397 
L 1369 4416 
L 622 4416 
L 622 4863 
L 1947 4863 
z
" transform="scale(0.015625)"/>
      <path id="DejaVuSans-73" d="M 2834 3397 
L 2834 2853 
Q 2591 2978 2328 3040 
Q 2066 3103 1784 3103 
Q 1356 3103 1142 2972 
Q 928 2841 928 2578 
Q 928 2378 1081 2264 
Q 1234 2150 1697 2047 
L 1894 2003 
Q 2506 1872 2764 1633 
Q 3022 1394 3022 966 
Q 3022 478 2636 193 
Q 2250 -91 1575 -91 
Q 1294 -91 989 -36 
Q 684 19 347 128 
L 347 722 
Q 666 556 975 473 
Q 1284 391 1588 391 
Q 1994 391 2212 530 
Q 2431 669 2431 922 
Q 2431 1156 2273 1281 
Q 2116 1406 1581 1522 
L 1381 1569 
Q 847 1681 609 1914 
Q 372 2147 372 2553 
Q 372 3047 722 3315 
Q 1072 3584 1716 3584 
Q 2034 3584 2315 3537 
Q 2597 3491 2834 3397 
z
" transform="scale(0.015625)"/>
      <path id="DejaVuSans-75" d="M 544 1381 
L 544 3500 
L 1119 3500 
L 1119 1403 
Q 1119 906 1312 657 
Q 1506 409 1894 409 
Q 2359 409 2629 706 
Q 2900 1003 2900 1516 
L 2900 3500 
L 3475 3500 
L 3475 0 
L 2900 0 
L 2900 538 
Q 2691 219 2414 64 
Q 2138 -91 1772 -91 
Q 1169 -91 856 284 
Q 544 659 544 1381 
z
M 1991 3584 
L 1991 3584 
z
" transform="scale(0.015625)"/>
      <path id="DejaVuSans-2c" d="M 750 794 
L 1409 794 
L 1409 256 
L 897 -744 
L 494 -744 
L 750 256 
L 750 794 
z
" transform="scale(0.015625)"/>
      <path id="DejaVuSans-76" d="M 191 3500 
L 800 3500 
L 1894 563 
L 2988 3500 
L 3597 3500 
L 2284 0 
L 1503 0 
L 191 3500 
z
" transform="scale(0.015625)"/>
      <path id="DejaVuSans-3a" d="M 750 794 
L 1409 794 
L 1409 0 
L 750 0 
L 750 794 
z
M 750 3309 
L 1409 3309 
L 1409 2516 
L 750 2516 
L 750 3309 
z
" transform="scale(0.015625)"/>
      <path id="DejaVuSans-2e" d="M 684 794 
L 1344 794 
L 1344 0 
L 684 0 
L 684 794 
z
" transform="scale(0.015625)"/>
     </defs>
     <use xlink:href="#DejaVuSans-53"/>
     <use xlink:href="#DejaVuSans-70" x="63.476562"/>
     <use xlink:href="#DejaVuSans-65" x="126.953125"/>
     <use xlink:href="#DejaVuSans-61" x="188.476562"/>
     <use xlink:href="#DejaVuSans-72" x="249.755859"/>
     <use xlink:href="#DejaVuSans-6d" x="289.119141"/>
     <use xlink:href="#DejaVuSans-61" x="386.53125"/>
     <use xlink:href="#DejaVuSans-6e" x="447.810547"/>
     <use xlink:href="#DejaVuSans-20" x="511.189453"/>
     <use xlink:href="#DejaVuSans-63" x="542.976562"/>
     <use xlink:href="#DejaVuSans-6f" x="597.957031"/>
     <use xlink:href="#DejaVuSans-72" x="659.138672"/>
     <use xlink:href="#DejaVuSans-72" x="698.501953"/>
     <use xlink:href="#DejaVuSans-65" x="737.365234"/>
     <use xlink:href="#DejaVuSans-6c" x="798.888672"/>
     <use xlink:href="#DejaVuSans-61" x="826.671875"/>
     <use xlink:href="#DejaVuSans-74" x="887.951172"/>
     <use xlink:href="#DejaVuSans-69" x="927.160156"/>
     <use xlink:href="#DejaVuSans-6f" x="954.943359"/>
     <use xlink:href="#DejaVuSans-6e" x="1016.125"/>
     <use xlink:href="#DejaVuSans-20" x="1079.503906"/>
     <use xlink:href="#DejaVuSans-63" x="1111.291016"/>
     <use xlink:href="#DejaVuSans-6f" x="1166.271484"/>
     <use xlink:href="#DejaVuSans-65" x="1227.453125"/>
     <use xlink:href="#DejaVuSans-66" x="1288.976562"/>
     <use xlink:href="#DejaVuSans-66" x="1324.181641"/>
     <use xlink:href="#DejaVuSans-69" x="1359.386719"/>
     <use xlink:href="#DejaVuSans-63" x="1387.169922"/>
     <use xlink:href="#DejaVuSans-69" x="1442.150391"/>
     <use xlink:href="#DejaVuSans-65" x="1469.933594"/>
     <use xlink:href="#DejaVuSans-6e" x="1531.457031"/>
     <use xlink:href="#DejaVuSans-74" x="1594.835938"/>
     <use xlink:href="#DejaVuSans-20" x="1634.044922"/>
     <use xlink:href="#DejaVuSans-5b" x="1665.832031"/>
     <use xlink:href="#DejaVuSans-50" x="1704.845703"/>
     <use xlink:href="#DejaVuSans-55" x="1765.148438"/>
     <use xlink:href="#DejaVuSans-5a" x="1836.591797"/>
     <use xlink:href="#DejaVuSans-5a" x="1905.097656"/>
     <use xlink:href="#DejaVuSans-4c" x="1973.603516"/>
     <use xlink:href="#DejaVuSans-45" x="2029.316406"/>
     <use xlink:href="#DejaVuSans-20" x="2092.5"/>
     <use xlink:href="#DejaVuSans-31" x="2124.287109"/>
     <use xlink:href="#DejaVuSans-38" x="2187.910156"/>
     <use xlink:href="#DejaVuSans-5d" x="2251.533203"/>
     <use xlink:href="#DejaVuSans-20" x="2290.546875"/>
     <use xlink:href="#DejaVuSans-5b" x="2322.333984"/>
     <use xlink:href="#DejaVuSans-4c" x="2361.347656"/>
     <use xlink:href="#DejaVuSans-6f" x="2415.310547"/>
     <use xlink:href="#DejaVuSans-63" x="2476.492188"/>
     <use xlink:href="#DejaVuSans-69" x="2531.472656"/>
     <use xlink:href="#DejaVuSans-70" x="2559.255859"/>
     <use xlink:href="#DejaVuSans-61" x="2622.732422"/>
     <use xlink:href="#DejaVuSans-72" x="2684.011719"/>
     <use xlink:href="#DejaVuSans-73" x="2725.125"/>
     <use xlink:href="#DejaVuSans-65" x="2777.224609"/>
     <use xlink:href="#DejaVuSans-20" x="2838.748047"/>
     <use xlink:href="#DejaVuSans-6c" x="2870.535156"/>
     <use xlink:href="#DejaVuSans-65" x="2898.318359"/>
     <use xlink:href="#DejaVuSans-73" x="2959.841797"/>
     <use xlink:href="#DejaVuSans-73" x="3011.941406"/>
     <use xlink:href="#DejaVuSans-20" x="3064.041016"/>
     <use xlink:href="#DejaVuSans-66" x="3095.828125"/>
     <use xlink:href="#DejaVuSans-65" x="3131.033203"/>
     <use xlink:href="#DejaVuSans-61" x="3192.556641"/>
     <use xlink:href="#DejaVuSans-74" x="3253.835938"/>
     <use xlink:href="#DejaVuSans-75" x="3293.044922"/>
     <use xlink:href="#DejaVuSans-72" x="3356.423828"/>
     <use xlink:href="#DejaVuSans-65" x="3395.287109"/>
     <use xlink:href="#DejaVuSans-73" x="3456.810547"/>
     <use xlink:href="#DejaVuSans-2c" x="3508.910156"/>
     <use xlink:href="#DejaVuSans-20" x="3540.697266"/>
     <use xlink:href="#DejaVuSans-63" x="3572.484375"/>
     <use xlink:href="#DejaVuSans-6f" x="3627.464844"/>
     <use xlink:href="#DejaVuSans-6e" x="3688.646484"/>
     <use xlink:href="#DejaVuSans-74" x="3752.025391"/>
     <use xlink:href="#DejaVuSans-72" x="3791.234375"/>
     <use xlink:href="#DejaVuSans-61" x="3832.347656"/>
     <use xlink:href="#DejaVuSans-73" x="3893.626953"/>
     <use xlink:href="#DejaVuSans-74" x="3945.726562"/>
     <use xlink:href="#DejaVuSans-69" x="3984.935547"/>
     <use xlink:href="#DejaVuSans-76" x="4012.71875"/>
     <use xlink:href="#DejaVuSans-65" x="4071.898438"/>
     <use xlink:href="#DejaVuSans-20" x="4133.421875"/>
     <use xlink:href="#DejaVuSans-6c" x="4165.208984"/>
     <use xlink:href="#DejaVuSans-6f" x="4192.992188"/>
     <use xlink:href="#DejaVuSans-73" x="4254.173828"/>
     <use xlink:href="#DejaVuSans-73" x="4306.273438"/>
     <use xlink:href="#DejaVuSans-5d" x="4358.373047"/>
     <use xlink:href="#DejaVuSans-3a" x="4397.386719"/>
     <use xlink:href="#DejaVuSans-20" x="4431.078125"/>
     <use xlink:href="#DejaVuSans-30" x="4462.865234"/>
     <use xlink:href="#DejaVuSans-2e" x="4526.488281"/>
     <use xlink:href="#DejaVuSans-33" x="4558.275391"/>
     <use xlink:href="#DejaVuSans-31" x="4621.898438"/>
    </g>
   </g>
  </g>
 </g>
 <defs>
  <clipPath id="pef352a6c1f">
   <rect x="57.6" y="41.472" width="357.12" height="266.112"/>
  </clipPath>
 </defs>
</svg>
